ISO-10303-21;
HEADER;
/* Generated by software containing ST-Developer
 * from STEP Tools, Inc. (www.steptools.com) 
 */
/* OPTION: strings as raw bytes, not using required /X/ escapes */

FILE_DESCRIPTION(
/* description */ ('Unknown'),
/* implementation_level */ '2;1');

FILE_NAME(
/* name */ '60612202111308',
/* time_stamp */ '2019-03-01T13:42:03+01:00',
/* author */ ('Unknown'),
/* organization */ ('Unknown'),
/* preprocessor_version */ 'ST-DEVELOPER v16.7',
/* originating_system */ 'DEX',
/* authorisation */ $);

FILE_SCHEMA (('AUTOMOTIVE_DESIGN {1 0 10303 214 3 1 1}'));
ENDSEC;

DATA;
#10=PROPERTY_DEFINITION_REPRESENTATION(#14,#12);
#11=PROPERTY_DEFINITION_REPRESENTATION(#15,#13);
#12=REPRESENTATION('',(#16),#1554);
#13=REPRESENTATION('',(#17),#1554);
#14=PROPERTY_DEFINITION('pmi validation property','',#1559);
#15=PROPERTY_DEFINITION('pmi validation property','',#1559);
#16=VALUE_REPRESENTATION_ITEM('number of annotations',COUNT_MEASURE(0.));
#17=VALUE_REPRESENTATION_ITEM('number of views',COUNT_MEASURE(0.));
#18=SHAPE_REPRESENTATION_RELATIONSHIP('','',#1026,#19);
#19=ADVANCED_BREP_SHAPE_REPRESENTATION('',(#1024),#1554);
#20=B_SPLINE_CURVE_WITH_KNOTS('',3,(#1532,#1533,#1534,#1535),
 .UNSPECIFIED.,.F.,.F.,(4,4),(7.20914195010215E-18,7.08528776958938E-5),
 .UNSPECIFIED.);
#21=B_SPLINE_CURVE_WITH_KNOTS('',3,(#1537,#1538,#1539,#1540),
 .UNSPECIFIED.,.F.,.F.,(4,4),(0.,7.08528776958953E-5),.UNSPECIFIED.);
#22=B_SPLINE_CURVE_WITH_KNOTS('',3,(#1542,#1543,#1544,#1545),
 .UNSPECIFIED.,.F.,.F.,(4,4),(0.,7.08528776958916E-5),.UNSPECIFIED.);
#23=B_SPLINE_CURVE_WITH_KNOTS('',3,(#1547,#1548,#1549,#1550),
 .UNSPECIFIED.,.F.,.F.,(4,4),(9.95257585532557E-19,7.08528776958941E-5),
 .UNSPECIFIED.);
#24=ELLIPSE('',#1087,19.2059990627926,0.48);
#25=ELLIPSE('',#1089,19.2059990627931,0.48);
#26=ELLIPSE('',#1091,19.2059990627931,0.48);
#27=ELLIPSE('',#1093,19.2059990627926,0.48);
#28=ELLIPSE('',#1101,17.2053741604186,0.43);
#29=ELLIPSE('',#1103,17.2053741604186,0.43);
#30=ELLIPSE('',#1106,17.2053741604185,0.43);
#31=ELLIPSE('',#1108,17.2053741604185,0.43);
#32=LINE('',#1362,#74);
#33=LINE('',#1366,#75);
#34=LINE('',#1368,#76);
#35=LINE('',#1372,#77);
#36=LINE('',#1374,#78);
#37=LINE('',#1376,#79);
#38=LINE('',#1378,#80);
#39=LINE('',#1381,#81);
#40=LINE('',#1383,#82);
#41=LINE('',#1385,#83);
#42=LINE('',#1389,#84);
#43=LINE('',#1395,#85);
#44=LINE('',#1399,#86);
#45=LINE('',#1402,#87);
#46=LINE('',#1404,#88);
#47=LINE('',#1406,#89);
#48=LINE('',#1408,#90);
#49=LINE('',#1410,#91);
#50=LINE('',#1412,#92);
#51=LINE('',#1414,#93);
#52=LINE('',#1431,#94);
#53=LINE('',#1434,#95);
#54=LINE('',#1435,#96);
#55=LINE('',#1437,#97);
#56=LINE('',#1439,#98);
#57=LINE('',#1441,#99);
#58=LINE('',#1443,#100);
#59=LINE('',#1447,#101);
#60=LINE('',#1449,#102);
#61=LINE('',#1451,#103);
#62=LINE('',#1455,#104);
#63=LINE('',#1457,#105);
#64=LINE('',#1459,#106);
#65=LINE('',#1461,#107);
#66=LINE('',#1463,#108);
#67=LINE('',#1465,#109);
#68=LINE('',#1467,#110);
#69=LINE('',#1469,#111);
#70=LINE('',#1527,#112);
#71=LINE('',#1528,#113);
#72=LINE('',#1529,#114);
#73=LINE('',#1530,#115);
#74=VECTOR('',#1147,1000.);
#75=VECTOR('',#1150,1000.);
#76=VECTOR('',#1153,1000.);
#77=VECTOR('',#1156,1000.);
#78=VECTOR('',#1159,1000.);
#79=VECTOR('',#1160,1000.);
#80=VECTOR('',#1163,1000.);
#81=VECTOR('',#1164,1000.);
#82=VECTOR('',#1165,1000.);
#83=VECTOR('',#1166,1000.);
#84=VECTOR('',#1171,1000.);
#85=VECTOR('',#1178,1000.);
#86=VECTOR('',#1183,1000.);
#87=VECTOR('',#1186,1000.);
#88=VECTOR('',#1187,1000.);
#89=VECTOR('',#1188,1000.);
#90=VECTOR('',#1189,1000.);
#91=VECTOR('',#1190,1000.);
#92=VECTOR('',#1191,1000.);
#93=VECTOR('',#1192,1000.);
#94=VECTOR('',#1215,1000.);
#95=VECTOR('',#1216,1000.);
#96=VECTOR('',#1217,1000.);
#97=VECTOR('',#1220,1000.);
#98=VECTOR('',#1221,1000.);
#99=VECTOR('',#1224,1000.);
#100=VECTOR('',#1225,1000.);
#101=VECTOR('',#1230,1000.);
#102=VECTOR('',#1233,1000.);
#103=VECTOR('',#1234,1000.);
#104=VECTOR('',#1239,1000.);
#105=VECTOR('',#1242,1000.);
#106=VECTOR('',#1243,1000.);
#107=VECTOR('',#1246,1000.);
#108=VECTOR('',#1247,1000.);
#109=VECTOR('',#1250,1000.);
#110=VECTOR('',#1251,1000.);
#111=VECTOR('',#1254,1000.);
#112=VECTOR('',#1323,1000.);
#113=VECTOR('',#1324,1000.);
#114=VECTOR('',#1325,1000.);
#115=VECTOR('',#1326,1000.);
#116=DRAUGHTING_PRE_DEFINED_COLOUR('white');
#117=CONICAL_SURFACE('',#1033,0.38,0.785398163397449);
#118=CONICAL_SURFACE('',#1115,0.48,0.785398163397447);
#119=CONICAL_SURFACE('',#1116,0.48,0.785398163397447);
#120=PLANE('',#1031);
#121=PLANE('',#1037);
#122=PLANE('',#1039);
#123=PLANE('',#1043);
#124=PLANE('',#1045);
#125=PLANE('',#1046);
#126=PLANE('',#1047);
#127=PLANE('',#1052);
#128=PLANE('',#1058);
#129=PLANE('',#1062);
#130=PLANE('',#1065);
#131=PLANE('',#1066);
#132=PLANE('',#1067);
#133=PLANE('',#1070);
#134=PLANE('',#1073);
#135=PLANE('',#1074);
#136=PLANE('',#1075);
#137=PLANE('',#1076);
#138=PLANE('',#1077);
#139=PLANE('',#1081);
#140=PLANE('',#1095);
#141=PLANE('',#1099);
#142=PLANE('',#1110);
#143=PLANE('',#1111);
#144=PLANE('',#1112);
#145=PLANE('',#1113);
#146=PLANE('',#1114);
#147=ORIENTED_EDGE('',*,*,#327,.T.);
#148=ORIENTED_EDGE('',*,*,#328,.T.);
#149=ORIENTED_EDGE('',*,*,#329,.T.);
#150=ORIENTED_EDGE('',*,*,#328,.F.);
#151=ORIENTED_EDGE('',*,*,#329,.F.);
#152=ORIENTED_EDGE('',*,*,#330,.T.);
#153=ORIENTED_EDGE('',*,*,#331,.F.);
#154=ORIENTED_EDGE('',*,*,#332,.T.);
#155=ORIENTED_EDGE('',*,*,#330,.F.);
#156=ORIENTED_EDGE('',*,*,#327,.F.);
#157=ORIENTED_EDGE('',*,*,#331,.T.);
#158=ORIENTED_EDGE('',*,*,#333,.F.);
#159=ORIENTED_EDGE('',*,*,#334,.F.);
#160=ORIENTED_EDGE('',*,*,#335,.T.);
#161=ORIENTED_EDGE('',*,*,#336,.T.);
#162=ORIENTED_EDGE('',*,*,#335,.F.);
#163=ORIENTED_EDGE('',*,*,#337,.F.);
#164=ORIENTED_EDGE('',*,*,#338,.F.);
#165=ORIENTED_EDGE('',*,*,#339,.F.);
#166=ORIENTED_EDGE('',*,*,#340,.F.);
#167=ORIENTED_EDGE('',*,*,#336,.F.);
#168=ORIENTED_EDGE('',*,*,#339,.T.);
#169=ORIENTED_EDGE('',*,*,#341,.T.);
#170=ORIENTED_EDGE('',*,*,#342,.T.);
#171=ORIENTED_EDGE('',*,*,#343,.F.);
#172=ORIENTED_EDGE('',*,*,#344,.F.);
#173=ORIENTED_EDGE('',*,*,#345,.T.);
#174=ORIENTED_EDGE('',*,*,#344,.T.);
#175=ORIENTED_EDGE('',*,*,#346,.T.);
#176=ORIENTED_EDGE('',*,*,#347,.T.);
#177=ORIENTED_EDGE('',*,*,#348,.T.);
#178=ORIENTED_EDGE('',*,*,#349,.T.);
#179=ORIENTED_EDGE('',*,*,#345,.F.);
#180=ORIENTED_EDGE('',*,*,#348,.F.);
#181=ORIENTED_EDGE('',*,*,#350,.T.);
#182=ORIENTED_EDGE('',*,*,#340,.T.);
#183=ORIENTED_EDGE('',*,*,#351,.T.);
#184=ORIENTED_EDGE('',*,*,#352,.T.);
#185=ORIENTED_EDGE('',*,*,#353,.T.);
#186=ORIENTED_EDGE('',*,*,#342,.F.);
#187=ORIENTED_EDGE('',*,*,#349,.F.);
#188=ORIENTED_EDGE('',*,*,#354,.F.);
#189=ORIENTED_EDGE('',*,*,#355,.T.);
#190=ORIENTED_EDGE('',*,*,#356,.T.);
#191=ORIENTED_EDGE('',*,*,#357,.T.);
#192=ORIENTED_EDGE('',*,*,#358,.T.);
#193=ORIENTED_EDGE('',*,*,#359,.T.);
#194=ORIENTED_EDGE('',*,*,#360,.T.);
#195=ORIENTED_EDGE('',*,*,#333,.T.);
#196=ORIENTED_EDGE('',*,*,#361,.T.);
#197=ORIENTED_EDGE('',*,*,#362,.T.);
#198=ORIENTED_EDGE('',*,*,#361,.F.);
#199=ORIENTED_EDGE('',*,*,#363,.F.);
#200=ORIENTED_EDGE('',*,*,#362,.F.);
#201=ORIENTED_EDGE('',*,*,#363,.T.);
#202=ORIENTED_EDGE('',*,*,#364,.F.);
#203=ORIENTED_EDGE('',*,*,#364,.T.);
#204=ORIENTED_EDGE('',*,*,#365,.F.);
#205=ORIENTED_EDGE('',*,*,#332,.F.);
#206=ORIENTED_EDGE('',*,*,#365,.T.);
#207=ORIENTED_EDGE('',*,*,#366,.F.);
#208=ORIENTED_EDGE('',*,*,#367,.F.);
#209=ORIENTED_EDGE('',*,*,#358,.F.);
#210=ORIENTED_EDGE('',*,*,#368,.F.);
#211=ORIENTED_EDGE('',*,*,#359,.F.);
#212=ORIENTED_EDGE('',*,*,#367,.T.);
#213=ORIENTED_EDGE('',*,*,#369,.T.);
#214=ORIENTED_EDGE('',*,*,#370,.T.);
#215=ORIENTED_EDGE('',*,*,#371,.T.);
#216=ORIENTED_EDGE('',*,*,#337,.T.);
#217=ORIENTED_EDGE('',*,*,#334,.T.);
#218=ORIENTED_EDGE('',*,*,#360,.F.);
#219=ORIENTED_EDGE('',*,*,#370,.F.);
#220=ORIENTED_EDGE('',*,*,#372,.T.);
#221=ORIENTED_EDGE('',*,*,#351,.F.);
#222=ORIENTED_EDGE('',*,*,#341,.F.);
#223=ORIENTED_EDGE('',*,*,#338,.T.);
#224=ORIENTED_EDGE('',*,*,#371,.F.);
#225=ORIENTED_EDGE('',*,*,#373,.T.);
#226=ORIENTED_EDGE('',*,*,#374,.T.);
#227=ORIENTED_EDGE('',*,*,#352,.F.);
#228=ORIENTED_EDGE('',*,*,#374,.F.);
#229=ORIENTED_EDGE('',*,*,#375,.T.);
#230=ORIENTED_EDGE('',*,*,#376,.T.);
#231=ORIENTED_EDGE('',*,*,#353,.F.);
#232=ORIENTED_EDGE('',*,*,#376,.F.);
#233=ORIENTED_EDGE('',*,*,#377,.T.);
#234=ORIENTED_EDGE('',*,*,#378,.T.);
#235=ORIENTED_EDGE('',*,*,#346,.F.);
#236=ORIENTED_EDGE('',*,*,#343,.T.);
#237=ORIENTED_EDGE('',*,*,#379,.T.);
#238=ORIENTED_EDGE('',*,*,#354,.T.);
#239=ORIENTED_EDGE('',*,*,#350,.F.);
#240=ORIENTED_EDGE('',*,*,#347,.F.);
#241=ORIENTED_EDGE('',*,*,#378,.F.);
#242=ORIENTED_EDGE('',*,*,#380,.T.);
#243=ORIENTED_EDGE('',*,*,#381,.T.);
#244=ORIENTED_EDGE('',*,*,#382,.T.);
#245=ORIENTED_EDGE('',*,*,#355,.F.);
#246=ORIENTED_EDGE('',*,*,#379,.F.);
#247=ORIENTED_EDGE('',*,*,#383,.F.);
#248=ORIENTED_EDGE('',*,*,#384,.F.);
#249=ORIENTED_EDGE('',*,*,#356,.F.);
#250=ORIENTED_EDGE('',*,*,#382,.F.);
#251=ORIENTED_EDGE('',*,*,#357,.F.);
#252=ORIENTED_EDGE('',*,*,#384,.T.);
#253=ORIENTED_EDGE('',*,*,#385,.T.);
#254=ORIENTED_EDGE('',*,*,#368,.T.);
#255=ORIENTED_EDGE('',*,*,#386,.T.);
#256=ORIENTED_EDGE('',*,*,#385,.F.);
#257=ORIENTED_EDGE('',*,*,#383,.T.);
#258=ORIENTED_EDGE('',*,*,#381,.F.);
#259=ORIENTED_EDGE('',*,*,#380,.F.);
#260=ORIENTED_EDGE('',*,*,#377,.F.);
#261=ORIENTED_EDGE('',*,*,#375,.F.);
#262=ORIENTED_EDGE('',*,*,#373,.F.);
#263=ORIENTED_EDGE('',*,*,#372,.F.);
#264=ORIENTED_EDGE('',*,*,#369,.F.);
#265=ORIENTED_EDGE('',*,*,#366,.T.);
#266=ORIENTED_EDGE('',*,*,#387,.T.);
#267=ORIENTED_EDGE('',*,*,#386,.F.);
#268=ORIENTED_EDGE('',*,*,#388,.T.);
#269=ORIENTED_EDGE('',*,*,#387,.F.);
#270=ORIENTED_EDGE('',*,*,#388,.F.);
#271=ORIENTED_EDGE('',*,*,#389,.T.);
#272=ORIENTED_EDGE('',*,*,#390,.F.);
#273=ORIENTED_EDGE('',*,*,#391,.F.);
#274=ORIENTED_EDGE('',*,*,#392,.T.);
#275=ORIENTED_EDGE('',*,*,#393,.F.);
#276=ORIENTED_EDGE('',*,*,#394,.F.);
#277=ORIENTED_EDGE('',*,*,#395,.F.);
#278=ORIENTED_EDGE('',*,*,#396,.T.);
#279=ORIENTED_EDGE('',*,*,#397,.F.);
#280=ORIENTED_EDGE('',*,*,#398,.F.);
#281=ORIENTED_EDGE('',*,*,#398,.T.);
#282=ORIENTED_EDGE('',*,*,#399,.F.);
#283=ORIENTED_EDGE('',*,*,#399,.T.);
#284=ORIENTED_EDGE('',*,*,#400,.F.);
#285=ORIENTED_EDGE('',*,*,#389,.F.);
#286=ORIENTED_EDGE('',*,*,#400,.T.);
#287=ORIENTED_EDGE('',*,*,#401,.T.);
#288=ORIENTED_EDGE('',*,*,#402,.T.);
#289=ORIENTED_EDGE('',*,*,#403,.T.);
#290=ORIENTED_EDGE('',*,*,#404,.T.);
#291=ORIENTED_EDGE('',*,*,#405,.T.);
#292=ORIENTED_EDGE('',*,*,#406,.T.);
#293=ORIENTED_EDGE('',*,*,#407,.T.);
#294=ORIENTED_EDGE('',*,*,#408,.T.);
#295=ORIENTED_EDGE('',*,*,#408,.F.);
#296=ORIENTED_EDGE('',*,*,#409,.T.);
#297=ORIENTED_EDGE('',*,*,#396,.F.);
#298=ORIENTED_EDGE('',*,*,#410,.F.);
#299=ORIENTED_EDGE('',*,*,#404,.F.);
#300=ORIENTED_EDGE('',*,*,#411,.F.);
#301=ORIENTED_EDGE('',*,*,#392,.F.);
#302=ORIENTED_EDGE('',*,*,#412,.T.);
#303=ORIENTED_EDGE('',*,*,#391,.T.);
#304=ORIENTED_EDGE('',*,*,#413,.T.);
#305=ORIENTED_EDGE('',*,*,#405,.F.);
#306=ORIENTED_EDGE('',*,*,#412,.F.);
#307=ORIENTED_EDGE('',*,*,#403,.F.);
#308=ORIENTED_EDGE('',*,*,#414,.T.);
#309=ORIENTED_EDGE('',*,*,#393,.T.);
#310=ORIENTED_EDGE('',*,*,#411,.T.);
#311=ORIENTED_EDGE('',*,*,#407,.F.);
#312=ORIENTED_EDGE('',*,*,#415,.T.);
#313=ORIENTED_EDGE('',*,*,#397,.T.);
#314=ORIENTED_EDGE('',*,*,#409,.F.);
#315=ORIENTED_EDGE('',*,*,#395,.T.);
#316=ORIENTED_EDGE('',*,*,#416,.T.);
#317=ORIENTED_EDGE('',*,*,#401,.F.);
#318=ORIENTED_EDGE('',*,*,#410,.T.);
#319=ORIENTED_EDGE('',*,*,#415,.F.);
#320=ORIENTED_EDGE('',*,*,#406,.F.);
#321=ORIENTED_EDGE('',*,*,#413,.F.);
#322=ORIENTED_EDGE('',*,*,#390,.T.);
#323=ORIENTED_EDGE('',*,*,#414,.F.);
#324=ORIENTED_EDGE('',*,*,#402,.F.);
#325=ORIENTED_EDGE('',*,*,#416,.F.);
#326=ORIENTED_EDGE('',*,*,#394,.T.);
#327=EDGE_CURVE('',#417,#417,#483,.T.);
#328=EDGE_CURVE('',#418,#418,#484,.F.);
#329=EDGE_CURVE('',#419,#419,#485,.T.);
#330=EDGE_CURVE('',#420,#420,#486,.T.);
#331=EDGE_CURVE('',#421,#421,#487,.T.);
#332=EDGE_CURVE('',#422,#422,#488,.T.);
#333=EDGE_CURVE('',#423,#424,#489,.T.);
#334=EDGE_CURVE('',#425,#423,#32,.T.);
#335=EDGE_CURVE('',#425,#426,#490,.T.);
#336=EDGE_CURVE('',#426,#424,#33,.T.);
#337=EDGE_CURVE('',#427,#425,#34,.T.);
#338=EDGE_CURVE('',#428,#427,#491,.T.);
#339=EDGE_CURVE('',#426,#428,#35,.T.);
#340=EDGE_CURVE('',#424,#429,#36,.T.);
#341=EDGE_CURVE('',#428,#429,#37,.T.);
#342=EDGE_CURVE('',#430,#431,#38,.T.);
#343=EDGE_CURVE('',#432,#431,#39,.T.);
#344=EDGE_CURVE('',#433,#432,#40,.T.);
#345=EDGE_CURVE('',#433,#430,#41,.T.);
#346=EDGE_CURVE('',#432,#434,#492,.T.);
#347=EDGE_CURVE('',#434,#435,#42,.T.);
#348=EDGE_CURVE('',#435,#433,#493,.T.);
#349=EDGE_CURVE('',#436,#430,#494,.T.);
#350=EDGE_CURVE('',#435,#436,#43,.T.);
#351=EDGE_CURVE('',#429,#437,#495,.T.);
#352=EDGE_CURVE('',#437,#438,#44,.T.);
#353=EDGE_CURVE('',#438,#431,#496,.T.);
#354=EDGE_CURVE('',#439,#436,#45,.T.);
#355=EDGE_CURVE('',#439,#440,#46,.T.);
#356=EDGE_CURVE('',#440,#441,#47,.F.);
#357=EDGE_CURVE('',#441,#442,#48,.T.);
#358=EDGE_CURVE('',#442,#443,#49,.F.);
#359=EDGE_CURVE('',#443,#444,#50,.T.);
#360=EDGE_CURVE('',#444,#423,#51,.T.);
#361=EDGE_CURVE('',#445,#445,#497,.T.);
#362=EDGE_CURVE('',#446,#446,#498,.T.);
#363=EDGE_CURVE('',#447,#447,#499,.T.);
#364=EDGE_CURVE('',#448,#448,#500,.T.);
#365=EDGE_CURVE('',#449,#449,#501,.T.);
#366=EDGE_CURVE('',#450,#451,#52,.F.);
#367=EDGE_CURVE('',#443,#450,#53,.T.);
#368=EDGE_CURVE('',#451,#442,#54,.T.);
#369=EDGE_CURVE('',#450,#452,#55,.T.);
#370=EDGE_CURVE('',#452,#444,#56,.T.);
#371=EDGE_CURVE('',#453,#427,#57,.T.);
#372=EDGE_CURVE('',#452,#453,#58,.T.);
#373=EDGE_CURVE('',#453,#454,#502,.T.);
#374=EDGE_CURVE('',#454,#437,#59,.T.);
#375=EDGE_CURVE('',#454,#455,#60,.T.);
#376=EDGE_CURVE('',#455,#438,#61,.T.);
#377=EDGE_CURVE('',#455,#456,#503,.T.);
#378=EDGE_CURVE('',#456,#434,#62,.T.);
#379=EDGE_CURVE('',#457,#439,#63,.T.);
#380=EDGE_CURVE('',#456,#457,#64,.T.);
#381=EDGE_CURVE('',#457,#458,#65,.T.);
#382=EDGE_CURVE('',#458,#440,#66,.T.);
#383=EDGE_CURVE('',#459,#458,#67,.F.);
#384=EDGE_CURVE('',#441,#459,#68,.T.);
#385=EDGE_CURVE('',#459,#451,#69,.T.);
#386=EDGE_CURVE('',#460,#460,#504,.T.);
#387=EDGE_CURVE('',#461,#461,#505,.T.);
#388=EDGE_CURVE('',#462,#462,#506,.T.);
#389=EDGE_CURVE('',#463,#463,#507,.T.);
#390=EDGE_CURVE('',#464,#465,#508,.F.);
#391=EDGE_CURVE('',#466,#464,#24,.T.);
#392=EDGE_CURVE('',#466,#467,#509,.T.);
#393=EDGE_CURVE('',#468,#467,#25,.T.);
#394=EDGE_CURVE('',#469,#468,#510,.F.);
#395=EDGE_CURVE('',#470,#469,#26,.T.);
#396=EDGE_CURVE('',#470,#471,#511,.T.);
#397=EDGE_CURVE('',#465,#471,#27,.T.);
#398=EDGE_CURVE('',#472,#472,#512,.T.);
#399=EDGE_CURVE('',#473,#473,#513,.T.);
#400=EDGE_CURVE('',#474,#474,#514,.T.);
#401=EDGE_CURVE('',#475,#476,#28,.T.);
#402=EDGE_CURVE('',#476,#477,#515,.F.);
#403=EDGE_CURVE('',#477,#478,#29,.T.);
#404=EDGE_CURVE('',#478,#475,#516,.T.);
#405=EDGE_CURVE('',#479,#480,#30,.T.);
#406=EDGE_CURVE('',#480,#481,#517,.F.);
#407=EDGE_CURVE('',#481,#482,#31,.T.);
#408=EDGE_CURVE('',#482,#479,#518,.T.);
#409=EDGE_CURVE('',#482,#471,#70,.T.);
#410=EDGE_CURVE('',#475,#470,#71,.T.);
#411=EDGE_CURVE('',#467,#478,#72,.T.);
#412=EDGE_CURVE('',#466,#479,#73,.T.);
#413=EDGE_CURVE('',#464,#480,#20,.T.);
#414=EDGE_CURVE('',#477,#468,#21,.T.);
#415=EDGE_CURVE('',#481,#465,#22,.T.);
#416=EDGE_CURVE('',#469,#476,#23,.T.);
#417=VERTEX_POINT('',#1342);
#418=VERTEX_POINT('',#1344);
#419=VERTEX_POINT('',#1347);
#420=VERTEX_POINT('',#1351);
#421=VERTEX_POINT('',#1353);
#422=VERTEX_POINT('',#1356);
#423=VERTEX_POINT('',#1360);
#424=VERTEX_POINT('',#1361);
#425=VERTEX_POINT('',#1363);
#426=VERTEX_POINT('',#1365);
#427=VERTEX_POINT('',#1369);
#428=VERTEX_POINT('',#1371);
#429=VERTEX_POINT('',#1375);
#430=VERTEX_POINT('',#1379);
#431=VERTEX_POINT('',#1380);
#432=VERTEX_POINT('',#1382);
#433=VERTEX_POINT('',#1384);
#434=VERTEX_POINT('',#1388);
#435=VERTEX_POINT('',#1390);
#436=VERTEX_POINT('',#1394);
#437=VERTEX_POINT('',#1398);
#438=VERTEX_POINT('',#1400);
#439=VERTEX_POINT('',#1403);
#440=VERTEX_POINT('',#1405);
#441=VERTEX_POINT('',#1407);
#442=VERTEX_POINT('',#1409);
#443=VERTEX_POINT('',#1411);
#444=VERTEX_POINT('',#1413);
#445=VERTEX_POINT('',#1416);
#446=VERTEX_POINT('',#1419);
#447=VERTEX_POINT('',#1422);
#448=VERTEX_POINT('',#1425);
#449=VERTEX_POINT('',#1428);
#450=VERTEX_POINT('',#1432);
#451=VERTEX_POINT('',#1433);
#452=VERTEX_POINT('',#1438);
#453=VERTEX_POINT('',#1442);
#454=VERTEX_POINT('',#1446);
#455=VERTEX_POINT('',#1450);
#456=VERTEX_POINT('',#1454);
#457=VERTEX_POINT('',#1458);
#458=VERTEX_POINT('',#1462);
#459=VERTEX_POINT('',#1466);
#460=VERTEX_POINT('',#1472);
#461=VERTEX_POINT('',#1475);
#462=VERTEX_POINT('',#1478);
#463=VERTEX_POINT('',#1481);
#464=VERTEX_POINT('',#1484);
#465=VERTEX_POINT('',#1485);
#466=VERTEX_POINT('',#1487);
#467=VERTEX_POINT('',#1489);
#468=VERTEX_POINT('',#1491);
#469=VERTEX_POINT('',#1493);
#470=VERTEX_POINT('',#1495);
#471=VERTEX_POINT('',#1497);
#472=VERTEX_POINT('',#1500);
#473=VERTEX_POINT('',#1503);
#474=VERTEX_POINT('',#1506);
#475=VERTEX_POINT('',#1510);
#476=VERTEX_POINT('',#1511);
#477=VERTEX_POINT('',#1513);
#478=VERTEX_POINT('',#1515);
#479=VERTEX_POINT('',#1519);
#480=VERTEX_POINT('',#1520);
#481=VERTEX_POINT('',#1522);
#482=VERTEX_POINT('',#1524);
#483=CIRCLE('',#1029,0.48);
#484=CIRCLE('',#1030,0.48);
#485=CIRCLE('',#1032,0.38);
#486=CIRCLE('',#1035,1.525);
#487=CIRCLE('',#1036,1.525);
#488=CIRCLE('',#1038,1.71);
#489=CIRCLE('',#1041,2.3);
#490=CIRCLE('',#1042,2.3);
#491=CIRCLE('',#1044,3.35);
#492=CIRCLE('',#1048,3.35);
#493=CIRCLE('',#1049,2.3);
#494=CIRCLE('',#1051,2.3);
#495=CIRCLE('',#1053,3.35);
#496=CIRCLE('',#1054,3.35);
#497=CIRCLE('',#1055,1.775);
#498=CIRCLE('',#1057,1.775);
#499=CIRCLE('',#1059,1.575);
#500=CIRCLE('',#1061,1.575);
#501=CIRCLE('',#1063,1.71);
#502=CIRCLE('',#1069,3.35);
#503=CIRCLE('',#1072,3.35);
#504=CIRCLE('',#1078,1.725);
#505=CIRCLE('',#1080,1.725);
#506=CIRCLE('',#1082,1.);
#507=CIRCLE('',#1084,1.);
#508=CIRCLE('',#1086,0.48);
#509=CIRCLE('',#1088,0.48);
#510=CIRCLE('',#1090,0.48);
#511=CIRCLE('',#1092,0.48);
#512=CIRCLE('',#1094,0.48);
#513=CIRCLE('',#1096,0.95);
#514=CIRCLE('',#1098,0.95);
#515=CIRCLE('',#1102,0.43);
#516=CIRCLE('',#1104,0.43);
#517=CIRCLE('',#1107,0.43);
#518=CIRCLE('',#1109,0.43);
#519=EDGE_LOOP('',(#147));
#520=EDGE_LOOP('',(#148));
#521=EDGE_LOOP('',(#149));
#522=EDGE_LOOP('',(#150));
#523=EDGE_LOOP('',(#151));
#524=EDGE_LOOP('',(#152));
#525=EDGE_LOOP('',(#153));
#526=EDGE_LOOP('',(#154));
#527=EDGE_LOOP('',(#155));
#528=EDGE_LOOP('',(#156));
#529=EDGE_LOOP('',(#157));
#530=EDGE_LOOP('',(#158,#159,#160,#161));
#531=EDGE_LOOP('',(#162,#163,#164,#165));
#532=EDGE_LOOP('',(#166,#167,#168,#169));
#533=EDGE_LOOP('',(#170,#171,#172,#173));
#534=EDGE_LOOP('',(#174,#175,#176,#177));
#535=EDGE_LOOP('',(#178,#179,#180,#181));
#536=EDGE_LOOP('',(#182,#183,#184,#185,#186,#187,#188,#189,#190,#191,#192,
#193,#194,#195));
#537=EDGE_LOOP('',(#196));
#538=EDGE_LOOP('',(#197));
#539=EDGE_LOOP('',(#198));
#540=EDGE_LOOP('',(#199));
#541=EDGE_LOOP('',(#200));
#542=EDGE_LOOP('',(#201));
#543=EDGE_LOOP('',(#202));
#544=EDGE_LOOP('',(#203));
#545=EDGE_LOOP('',(#204));
#546=EDGE_LOOP('',(#205));
#547=EDGE_LOOP('',(#206));
#548=EDGE_LOOP('',(#207,#208,#209,#210));
#549=EDGE_LOOP('',(#211,#212,#213,#214));
#550=EDGE_LOOP('',(#215,#216,#217,#218,#219,#220));
#551=EDGE_LOOP('',(#221,#222,#223,#224,#225,#226));
#552=EDGE_LOOP('',(#227,#228,#229,#230));
#553=EDGE_LOOP('',(#231,#232,#233,#234,#235,#236));
#554=EDGE_LOOP('',(#237,#238,#239,#240,#241,#242));
#555=EDGE_LOOP('',(#243,#244,#245,#246));
#556=EDGE_LOOP('',(#247,#248,#249,#250));
#557=EDGE_LOOP('',(#251,#252,#253,#254));
#558=EDGE_LOOP('',(#255));
#559=EDGE_LOOP('',(#256,#257,#258,#259,#260,#261,#262,#263,#264,#265));
#560=EDGE_LOOP('',(#266));
#561=EDGE_LOOP('',(#267));
#562=EDGE_LOOP('',(#268));
#563=EDGE_LOOP('',(#269));
#564=EDGE_LOOP('',(#270));
#565=EDGE_LOOP('',(#271));
#566=EDGE_LOOP('',(#272,#273,#274,#275,#276,#277,#278,#279));
#567=EDGE_LOOP('',(#280));
#568=EDGE_LOOP('',(#281));
#569=EDGE_LOOP('',(#282));
#570=EDGE_LOOP('',(#283));
#571=EDGE_LOOP('',(#284));
#572=EDGE_LOOP('',(#285));
#573=EDGE_LOOP('',(#286));
#574=EDGE_LOOP('',(#287,#288,#289,#290));
#575=EDGE_LOOP('',(#291,#292,#293,#294));
#576=EDGE_LOOP('',(#295,#296,#297,#298,#299,#300,#301,#302));
#577=EDGE_LOOP('',(#303,#304,#305,#306));
#578=EDGE_LOOP('',(#307,#308,#309,#310));
#579=EDGE_LOOP('',(#311,#312,#313,#314));
#580=EDGE_LOOP('',(#315,#316,#317,#318));
#581=EDGE_LOOP('',(#319,#320,#321,#322));
#582=EDGE_LOOP('',(#323,#324,#325,#326));
#583=FACE_BOUND('',#519,.T.);
#584=FACE_BOUND('',#520,.T.);
#585=FACE_BOUND('',#521,.T.);
#586=FACE_BOUND('',#522,.T.);
#587=FACE_BOUND('',#523,.T.);
#588=FACE_BOUND('',#524,.T.);
#589=FACE_BOUND('',#525,.T.);
#590=FACE_BOUND('',#526,.T.);
#591=FACE_BOUND('',#527,.T.);
#592=FACE_BOUND('',#528,.T.);
#593=FACE_BOUND('',#529,.T.);
#594=FACE_BOUND('',#530,.T.);
#595=FACE_BOUND('',#531,.T.);
#596=FACE_BOUND('',#532,.T.);
#597=FACE_BOUND('',#533,.T.);
#598=FACE_BOUND('',#534,.T.);
#599=FACE_BOUND('',#535,.T.);
#600=FACE_BOUND('',#536,.T.);
#601=FACE_BOUND('',#537,.T.);
#602=FACE_BOUND('',#538,.T.);
#603=FACE_BOUND('',#539,.T.);
#604=FACE_BOUND('',#540,.T.);
#605=FACE_BOUND('',#541,.T.);
#606=FACE_BOUND('',#542,.T.);
#607=FACE_BOUND('',#543,.T.);
#608=FACE_BOUND('',#544,.T.);
#609=FACE_BOUND('',#545,.T.);
#610=FACE_BOUND('',#546,.T.);
#611=FACE_BOUND('',#547,.T.);
#612=FACE_BOUND('',#548,.T.);
#613=FACE_BOUND('',#549,.T.);
#614=FACE_BOUND('',#550,.T.);
#615=FACE_BOUND('',#551,.T.);
#616=FACE_BOUND('',#552,.T.);
#617=FACE_BOUND('',#553,.T.);
#618=FACE_BOUND('',#554,.T.);
#619=FACE_BOUND('',#555,.T.);
#620=FACE_BOUND('',#556,.T.);
#621=FACE_BOUND('',#557,.T.);
#622=FACE_BOUND('',#558,.T.);
#623=FACE_BOUND('',#559,.T.);
#624=FACE_BOUND('',#560,.T.);
#625=FACE_BOUND('',#561,.T.);
#626=FACE_BOUND('',#562,.T.);
#627=FACE_BOUND('',#563,.T.);
#628=FACE_BOUND('',#564,.T.);
#629=FACE_BOUND('',#565,.T.);
#630=FACE_BOUND('',#566,.T.);
#631=FACE_BOUND('',#567,.T.);
#632=FACE_BOUND('',#568,.T.);
#633=FACE_BOUND('',#569,.T.);
#634=FACE_BOUND('',#570,.T.);
#635=FACE_BOUND('',#571,.T.);
#636=FACE_BOUND('',#572,.T.);
#637=FACE_BOUND('',#573,.T.);
#638=FACE_BOUND('',#574,.T.);
#639=FACE_BOUND('',#575,.T.);
#640=FACE_BOUND('',#576,.T.);
#641=FACE_BOUND('',#577,.T.);
#642=FACE_BOUND('',#578,.T.);
#643=FACE_BOUND('',#579,.T.);
#644=FACE_BOUND('',#580,.T.);
#645=FACE_BOUND('',#581,.T.);
#646=FACE_BOUND('',#582,.T.);
#647=CYLINDRICAL_SURFACE('',#1028,0.48);
#648=CYLINDRICAL_SURFACE('',#1034,1.525);
#649=CYLINDRICAL_SURFACE('',#1040,2.3);
#650=CYLINDRICAL_SURFACE('',#1050,2.3);
#651=CYLINDRICAL_SURFACE('',#1056,1.775);
#652=CYLINDRICAL_SURFACE('',#1060,1.575);
#653=CYLINDRICAL_SURFACE('',#1064,1.71);
#654=CYLINDRICAL_SURFACE('',#1068,3.35);
#655=CYLINDRICAL_SURFACE('',#1071,3.35);
#656=CYLINDRICAL_SURFACE('',#1079,1.725);
#657=CYLINDRICAL_SURFACE('',#1083,1.);
#658=CYLINDRICAL_SURFACE('',#1085,0.48);
#659=CYLINDRICAL_SURFACE('',#1097,0.95);
#660=CYLINDRICAL_SURFACE('',#1100,0.43);
#661=CYLINDRICAL_SURFACE('',#1105,0.43);
#662=STYLED_ITEM('',(#707),#978);
#663=STYLED_ITEM('',(#708),#979);
#664=STYLED_ITEM('',(#709),#980);
#665=STYLED_ITEM('',(#710),#981);
#666=STYLED_ITEM('',(#711),#982);
#667=STYLED_ITEM('',(#712),#983);
#668=STYLED_ITEM('',(#713),#984);
#669=STYLED_ITEM('',(#714),#985);
#670=STYLED_ITEM('',(#715),#986);
#671=STYLED_ITEM('',(#716),#987);
#672=STYLED_ITEM('',(#717),#988);
#673=STYLED_ITEM('',(#718),#989);
#674=STYLED_ITEM('',(#719),#990);
#675=STYLED_ITEM('',(#720),#991);
#676=STYLED_ITEM('',(#721),#992);
#677=STYLED_ITEM('',(#722),#993);
#678=STYLED_ITEM('',(#723),#994);
#679=STYLED_ITEM('',(#724),#995);
#680=STYLED_ITEM('',(#725),#996);
#681=STYLED_ITEM('',(#726),#997);
#682=STYLED_ITEM('',(#727),#998);
#683=STYLED_ITEM('',(#728),#999);
#684=STYLED_ITEM('',(#729),#1000);
#685=STYLED_ITEM('',(#730),#1001);
#686=STYLED_ITEM('',(#731),#1002);
#687=STYLED_ITEM('',(#732),#1003);
#688=STYLED_ITEM('',(#733),#1004);
#689=STYLED_ITEM('',(#734),#1005);
#690=STYLED_ITEM('',(#735),#1006);
#691=STYLED_ITEM('',(#736),#1007);
#692=STYLED_ITEM('',(#737),#1008);
#693=STYLED_ITEM('',(#738),#1009);
#694=STYLED_ITEM('',(#739),#1010);
#695=STYLED_ITEM('',(#740),#1011);
#696=STYLED_ITEM('',(#741),#1012);
#697=STYLED_ITEM('',(#742),#1013);
#698=STYLED_ITEM('',(#743),#1014);
#699=STYLED_ITEM('',(#744),#1015);
#700=STYLED_ITEM('',(#745),#1016);
#701=STYLED_ITEM('',(#746),#1017);
#702=STYLED_ITEM('',(#747),#1018);
#703=STYLED_ITEM('',(#748),#1019);
#704=STYLED_ITEM('',(#749),#1020);
#705=STYLED_ITEM('',(#750),#1021);
#706=STYLED_ITEM('',(#751),#1022);
#707=PRESENTATION_STYLE_ASSIGNMENT((#752));
#708=PRESENTATION_STYLE_ASSIGNMENT((#753));
#709=PRESENTATION_STYLE_ASSIGNMENT((#754));
#710=PRESENTATION_STYLE_ASSIGNMENT((#755));
#711=PRESENTATION_STYLE_ASSIGNMENT((#756));
#712=PRESENTATION_STYLE_ASSIGNMENT((#757));
#713=PRESENTATION_STYLE_ASSIGNMENT((#758));
#714=PRESENTATION_STYLE_ASSIGNMENT((#759));
#715=PRESENTATION_STYLE_ASSIGNMENT((#760));
#716=PRESENTATION_STYLE_ASSIGNMENT((#761));
#717=PRESENTATION_STYLE_ASSIGNMENT((#762));
#718=PRESENTATION_STYLE_ASSIGNMENT((#763));
#719=PRESENTATION_STYLE_ASSIGNMENT((#764));
#720=PRESENTATION_STYLE_ASSIGNMENT((#765));
#721=PRESENTATION_STYLE_ASSIGNMENT((#766));
#722=PRESENTATION_STYLE_ASSIGNMENT((#767));
#723=PRESENTATION_STYLE_ASSIGNMENT((#768));
#724=PRESENTATION_STYLE_ASSIGNMENT((#769));
#725=PRESENTATION_STYLE_ASSIGNMENT((#770));
#726=PRESENTATION_STYLE_ASSIGNMENT((#771));
#727=PRESENTATION_STYLE_ASSIGNMENT((#772));
#728=PRESENTATION_STYLE_ASSIGNMENT((#773));
#729=PRESENTATION_STYLE_ASSIGNMENT((#774));
#730=PRESENTATION_STYLE_ASSIGNMENT((#775));
#731=PRESENTATION_STYLE_ASSIGNMENT((#776));
#732=PRESENTATION_STYLE_ASSIGNMENT((#777));
#733=PRESENTATION_STYLE_ASSIGNMENT((#778));
#734=PRESENTATION_STYLE_ASSIGNMENT((#779));
#735=PRESENTATION_STYLE_ASSIGNMENT((#780));
#736=PRESENTATION_STYLE_ASSIGNMENT((#781));
#737=PRESENTATION_STYLE_ASSIGNMENT((#782));
#738=PRESENTATION_STYLE_ASSIGNMENT((#783));
#739=PRESENTATION_STYLE_ASSIGNMENT((#784));
#740=PRESENTATION_STYLE_ASSIGNMENT((#785));
#741=PRESENTATION_STYLE_ASSIGNMENT((#786));
#742=PRESENTATION_STYLE_ASSIGNMENT((#787));
#743=PRESENTATION_STYLE_ASSIGNMENT((#788));
#744=PRESENTATION_STYLE_ASSIGNMENT((#789));
#745=PRESENTATION_STYLE_ASSIGNMENT((#790));
#746=PRESENTATION_STYLE_ASSIGNMENT((#791));
#747=PRESENTATION_STYLE_ASSIGNMENT((#792));
#748=PRESENTATION_STYLE_ASSIGNMENT((#793));
#749=PRESENTATION_STYLE_ASSIGNMENT((#794));
#750=PRESENTATION_STYLE_ASSIGNMENT((#795));
#751=PRESENTATION_STYLE_ASSIGNMENT((#796));
#752=SURFACE_STYLE_USAGE(.BOTH.,#797);
#753=SURFACE_STYLE_USAGE(.BOTH.,#798);
#754=SURFACE_STYLE_USAGE(.BOTH.,#799);
#755=SURFACE_STYLE_USAGE(.BOTH.,#800);
#756=SURFACE_STYLE_USAGE(.BOTH.,#801);
#757=SURFACE_STYLE_USAGE(.BOTH.,#802);
#758=SURFACE_STYLE_USAGE(.BOTH.,#803);
#759=SURFACE_STYLE_USAGE(.BOTH.,#804);
#760=SURFACE_STYLE_USAGE(.BOTH.,#805);
#761=SURFACE_STYLE_USAGE(.BOTH.,#806);
#762=SURFACE_STYLE_USAGE(.BOTH.,#807);
#763=SURFACE_STYLE_USAGE(.BOTH.,#808);
#764=SURFACE_STYLE_USAGE(.BOTH.,#809);
#765=SURFACE_STYLE_USAGE(.BOTH.,#810);
#766=SURFACE_STYLE_USAGE(.BOTH.,#811);
#767=SURFACE_STYLE_USAGE(.BOTH.,#812);
#768=SURFACE_STYLE_USAGE(.BOTH.,#813);
#769=SURFACE_STYLE_USAGE(.BOTH.,#814);
#770=SURFACE_STYLE_USAGE(.BOTH.,#815);
#771=SURFACE_STYLE_USAGE(.BOTH.,#816);
#772=SURFACE_STYLE_USAGE(.BOTH.,#817);
#773=SURFACE_STYLE_USAGE(.BOTH.,#818);
#774=SURFACE_STYLE_USAGE(.BOTH.,#819);
#775=SURFACE_STYLE_USAGE(.BOTH.,#820);
#776=SURFACE_STYLE_USAGE(.BOTH.,#821);
#777=SURFACE_STYLE_USAGE(.BOTH.,#822);
#778=SURFACE_STYLE_USAGE(.BOTH.,#823);
#779=SURFACE_STYLE_USAGE(.BOTH.,#824);
#780=SURFACE_STYLE_USAGE(.BOTH.,#825);
#781=SURFACE_STYLE_USAGE(.BOTH.,#826);
#782=SURFACE_STYLE_USAGE(.BOTH.,#827);
#783=SURFACE_STYLE_USAGE(.BOTH.,#828);
#784=SURFACE_STYLE_USAGE(.BOTH.,#829);
#785=SURFACE_STYLE_USAGE(.BOTH.,#830);
#786=SURFACE_STYLE_USAGE(.BOTH.,#831);
#787=SURFACE_STYLE_USAGE(.BOTH.,#832);
#788=SURFACE_STYLE_USAGE(.BOTH.,#833);
#789=SURFACE_STYLE_USAGE(.BOTH.,#834);
#790=SURFACE_STYLE_USAGE(.BOTH.,#835);
#791=SURFACE_STYLE_USAGE(.BOTH.,#836);
#792=SURFACE_STYLE_USAGE(.BOTH.,#837);
#793=SURFACE_STYLE_USAGE(.BOTH.,#838);
#794=SURFACE_STYLE_USAGE(.BOTH.,#839);
#795=SURFACE_STYLE_USAGE(.BOTH.,#840);
#796=SURFACE_STYLE_USAGE(.BOTH.,#841);
#797=SURFACE_SIDE_STYLE('',(#842));
#798=SURFACE_SIDE_STYLE('',(#843));
#799=SURFACE_SIDE_STYLE('',(#844));
#800=SURFACE_SIDE_STYLE('',(#845));
#801=SURFACE_SIDE_STYLE('',(#846));
#802=SURFACE_SIDE_STYLE('',(#847));
#803=SURFACE_SIDE_STYLE('',(#848));
#804=SURFACE_SIDE_STYLE('',(#849));
#805=SURFACE_SIDE_STYLE('',(#850));
#806=SURFACE_SIDE_STYLE('',(#851));
#807=SURFACE_SIDE_STYLE('',(#852));
#808=SURFACE_SIDE_STYLE('',(#853));
#809=SURFACE_SIDE_STYLE('',(#854));
#810=SURFACE_SIDE_STYLE('',(#855));
#811=SURFACE_SIDE_STYLE('',(#856));
#812=SURFACE_SIDE_STYLE('',(#857));
#813=SURFACE_SIDE_STYLE('',(#858));
#814=SURFACE_SIDE_STYLE('',(#859));
#815=SURFACE_SIDE_STYLE('',(#860));
#816=SURFACE_SIDE_STYLE('',(#861));
#817=SURFACE_SIDE_STYLE('',(#862));
#818=SURFACE_SIDE_STYLE('',(#863));
#819=SURFACE_SIDE_STYLE('',(#864));
#820=SURFACE_SIDE_STYLE('',(#865));
#821=SURFACE_SIDE_STYLE('',(#866));
#822=SURFACE_SIDE_STYLE('',(#867));
#823=SURFACE_SIDE_STYLE('',(#868));
#824=SURFACE_SIDE_STYLE('',(#869));
#825=SURFACE_SIDE_STYLE('',(#870));
#826=SURFACE_SIDE_STYLE('',(#871));
#827=SURFACE_SIDE_STYLE('',(#872));
#828=SURFACE_SIDE_STYLE('',(#873));
#829=SURFACE_SIDE_STYLE('',(#874));
#830=SURFACE_SIDE_STYLE('',(#875));
#831=SURFACE_SIDE_STYLE('',(#876));
#832=SURFACE_SIDE_STYLE('',(#877));
#833=SURFACE_SIDE_STYLE('',(#878));
#834=SURFACE_SIDE_STYLE('',(#879));
#835=SURFACE_SIDE_STYLE('',(#880));
#836=SURFACE_SIDE_STYLE('',(#881));
#837=SURFACE_SIDE_STYLE('',(#882));
#838=SURFACE_SIDE_STYLE('',(#883));
#839=SURFACE_SIDE_STYLE('',(#884));
#840=SURFACE_SIDE_STYLE('',(#885));
#841=SURFACE_SIDE_STYLE('',(#886));
#842=SURFACE_STYLE_FILL_AREA(#887);
#843=SURFACE_STYLE_FILL_AREA(#888);
#844=SURFACE_STYLE_FILL_AREA(#889);
#845=SURFACE_STYLE_FILL_AREA(#890);
#846=SURFACE_STYLE_FILL_AREA(#891);
#847=SURFACE_STYLE_FILL_AREA(#892);
#848=SURFACE_STYLE_FILL_AREA(#893);
#849=SURFACE_STYLE_FILL_AREA(#894);
#850=SURFACE_STYLE_FILL_AREA(#895);
#851=SURFACE_STYLE_FILL_AREA(#896);
#852=SURFACE_STYLE_FILL_AREA(#897);
#853=SURFACE_STYLE_FILL_AREA(#898);
#854=SURFACE_STYLE_FILL_AREA(#899);
#855=SURFACE_STYLE_FILL_AREA(#900);
#856=SURFACE_STYLE_FILL_AREA(#901);
#857=SURFACE_STYLE_FILL_AREA(#902);
#858=SURFACE_STYLE_FILL_AREA(#903);
#859=SURFACE_STYLE_FILL_AREA(#904);
#860=SURFACE_STYLE_FILL_AREA(#905);
#861=SURFACE_STYLE_FILL_AREA(#906);
#862=SURFACE_STYLE_FILL_AREA(#907);
#863=SURFACE_STYLE_FILL_AREA(#908);
#864=SURFACE_STYLE_FILL_AREA(#909);
#865=SURFACE_STYLE_FILL_AREA(#910);
#866=SURFACE_STYLE_FILL_AREA(#911);
#867=SURFACE_STYLE_FILL_AREA(#912);
#868=SURFACE_STYLE_FILL_AREA(#913);
#869=SURFACE_STYLE_FILL_AREA(#914);
#870=SURFACE_STYLE_FILL_AREA(#915);
#871=SURFACE_STYLE_FILL_AREA(#916);
#872=SURFACE_STYLE_FILL_AREA(#917);
#873=SURFACE_STYLE_FILL_AREA(#918);
#874=SURFACE_STYLE_FILL_AREA(#919);
#875=SURFACE_STYLE_FILL_AREA(#920);
#876=SURFACE_STYLE_FILL_AREA(#921);
#877=SURFACE_STYLE_FILL_AREA(#922);
#878=SURFACE_STYLE_FILL_AREA(#923);
#879=SURFACE_STYLE_FILL_AREA(#924);
#880=SURFACE_STYLE_FILL_AREA(#925);
#881=SURFACE_STYLE_FILL_AREA(#926);
#882=SURFACE_STYLE_FILL_AREA(#927);
#883=SURFACE_STYLE_FILL_AREA(#928);
#884=SURFACE_STYLE_FILL_AREA(#929);
#885=SURFACE_STYLE_FILL_AREA(#930);
#886=SURFACE_STYLE_FILL_AREA(#931);
#887=FILL_AREA_STYLE('',(#932));
#888=FILL_AREA_STYLE('',(#933));
#889=FILL_AREA_STYLE('',(#934));
#890=FILL_AREA_STYLE('',(#935));
#891=FILL_AREA_STYLE('',(#936));
#892=FILL_AREA_STYLE('',(#937));
#893=FILL_AREA_STYLE('',(#938));
#894=FILL_AREA_STYLE('',(#939));
#895=FILL_AREA_STYLE('',(#940));
#896=FILL_AREA_STYLE('',(#941));
#897=FILL_AREA_STYLE('',(#942));
#898=FILL_AREA_STYLE('',(#943));
#899=FILL_AREA_STYLE('',(#944));
#900=FILL_AREA_STYLE('',(#945));
#901=FILL_AREA_STYLE('',(#946));
#902=FILL_AREA_STYLE('',(#947));
#903=FILL_AREA_STYLE('',(#948));
#904=FILL_AREA_STYLE('',(#949));
#905=FILL_AREA_STYLE('',(#950));
#906=FILL_AREA_STYLE('',(#951));
#907=FILL_AREA_STYLE('',(#952));
#908=FILL_AREA_STYLE('',(#953));
#909=FILL_AREA_STYLE('',(#954));
#910=FILL_AREA_STYLE('',(#955));
#911=FILL_AREA_STYLE('',(#956));
#912=FILL_AREA_STYLE('',(#957));
#913=FILL_AREA_STYLE('',(#958));
#914=FILL_AREA_STYLE('',(#959));
#915=FILL_AREA_STYLE('',(#960));
#916=FILL_AREA_STYLE('',(#961));
#917=FILL_AREA_STYLE('',(#962));
#918=FILL_AREA_STYLE('',(#963));
#919=FILL_AREA_STYLE('',(#964));
#920=FILL_AREA_STYLE('',(#965));
#921=FILL_AREA_STYLE('',(#966));
#922=FILL_AREA_STYLE('',(#967));
#923=FILL_AREA_STYLE('',(#968));
#924=FILL_AREA_STYLE('',(#969));
#925=FILL_AREA_STYLE('',(#970));
#926=FILL_AREA_STYLE('',(#971));
#927=FILL_AREA_STYLE('',(#972));
#928=FILL_AREA_STYLE('',(#973));
#929=FILL_AREA_STYLE('',(#974));
#930=FILL_AREA_STYLE('',(#975));
#931=FILL_AREA_STYLE('',(#976));
#932=FILL_AREA_STYLE_COLOUR('',#977);
#933=FILL_AREA_STYLE_COLOUR('',#977);
#934=FILL_AREA_STYLE_COLOUR('',#977);
#935=FILL_AREA_STYLE_COLOUR('',#116);
#936=FILL_AREA_STYLE_COLOUR('',#116);
#937=FILL_AREA_STYLE_COLOUR('',#116);
#938=FILL_AREA_STYLE_COLOUR('',#977);
#939=FILL_AREA_STYLE_COLOUR('',#977);
#940=FILL_AREA_STYLE_COLOUR('',#977);
#941=FILL_AREA_STYLE_COLOUR('',#977);
#942=FILL_AREA_STYLE_COLOUR('',#977);
#943=FILL_AREA_STYLE_COLOUR('',#977);
#944=FILL_AREA_STYLE_COLOUR('',#977);
#945=FILL_AREA_STYLE_COLOUR('',#977);
#946=FILL_AREA_STYLE_COLOUR('',#977);
#947=FILL_AREA_STYLE_COLOUR('',#977);
#948=FILL_AREA_STYLE_COLOUR('',#977);
#949=FILL_AREA_STYLE_COLOUR('',#977);
#950=FILL_AREA_STYLE_COLOUR('',#977);
#951=FILL_AREA_STYLE_COLOUR('',#977);
#952=FILL_AREA_STYLE_COLOUR('',#977);
#953=FILL_AREA_STYLE_COLOUR('',#977);
#954=FILL_AREA_STYLE_COLOUR('',#977);
#955=FILL_AREA_STYLE_COLOUR('',#977);
#956=FILL_AREA_STYLE_COLOUR('',#977);
#957=FILL_AREA_STYLE_COLOUR('',#977);
#958=FILL_AREA_STYLE_COLOUR('',#977);
#959=FILL_AREA_STYLE_COLOUR('',#977);
#960=FILL_AREA_STYLE_COLOUR('',#977);
#961=FILL_AREA_STYLE_COLOUR('',#977);
#962=FILL_AREA_STYLE_COLOUR('',#977);
#963=FILL_AREA_STYLE_COLOUR('',#977);
#964=FILL_AREA_STYLE_COLOUR('',#116);
#965=FILL_AREA_STYLE_COLOUR('',#116);
#966=FILL_AREA_STYLE_COLOUR('',#116);
#967=FILL_AREA_STYLE_COLOUR('',#116);
#968=FILL_AREA_STYLE_COLOUR('',#977);
#969=FILL_AREA_STYLE_COLOUR('',#977);
#970=FILL_AREA_STYLE_COLOUR('',#977);
#971=FILL_AREA_STYLE_COLOUR('',#977);
#972=FILL_AREA_STYLE_COLOUR('',#977);
#973=FILL_AREA_STYLE_COLOUR('',#977);
#974=FILL_AREA_STYLE_COLOUR('',#977);
#975=FILL_AREA_STYLE_COLOUR('',#977);
#976=FILL_AREA_STYLE_COLOUR('',#977);
#977=COLOUR_RGB('',0.87058824300766,0.633254885673523,0.172549024224281);
#978=ADVANCED_FACE('',(#583,#584),#647,.T.);
#979=ADVANCED_FACE('',(#585),#120,.T.);
#980=ADVANCED_FACE('',(#586,#587),#117,.T.);
#981=ADVANCED_FACE('',(#588,#589),#648,.T.);
#982=ADVANCED_FACE('',(#590,#591),#121,.T.);
#983=ADVANCED_FACE('',(#592,#593),#122,.T.);
#984=ADVANCED_FACE('',(#594),#649,.F.);
#985=ADVANCED_FACE('',(#595),#123,.T.);
#986=ADVANCED_FACE('',(#596),#124,.T.);
#987=ADVANCED_FACE('',(#597),#125,.F.);
#988=ADVANCED_FACE('',(#598),#126,.T.);
#989=ADVANCED_FACE('',(#599),#650,.F.);
#990=ADVANCED_FACE('',(#600,#601),#127,.T.);
#991=ADVANCED_FACE('',(#602,#603),#651,.F.);
#992=ADVANCED_FACE('',(#604,#605),#128,.F.);
#993=ADVANCED_FACE('',(#606,#607),#652,.F.);
#994=ADVANCED_FACE('',(#608,#609),#129,.T.);
#995=ADVANCED_FACE('',(#610,#611),#653,.F.);
#996=ADVANCED_FACE('',(#612),#130,.F.);
#997=ADVANCED_FACE('',(#613),#131,.T.);
#998=ADVANCED_FACE('',(#614),#132,.T.);
#999=ADVANCED_FACE('',(#615),#654,.T.);
#1000=ADVANCED_FACE('',(#616),#133,.T.);
#1001=ADVANCED_FACE('',(#617),#655,.T.);
#1002=ADVANCED_FACE('',(#618),#134,.T.);
#1003=ADVANCED_FACE('',(#619),#135,.T.);
#1004=ADVANCED_FACE('',(#620),#136,.F.);
#1005=ADVANCED_FACE('',(#621),#137,.T.);
#1006=ADVANCED_FACE('',(#622,#623),#138,.F.);
#1007=ADVANCED_FACE('',(#624,#625),#656,.F.);
#1008=ADVANCED_FACE('',(#626,#627),#139,.F.);
#1009=ADVANCED_FACE('',(#628,#629),#657,.F.);
#1010=ADVANCED_FACE('',(#630,#631),#658,.F.);
#1011=ADVANCED_FACE('',(#632,#633),#140,.F.);
#1012=ADVANCED_FACE('',(#634,#635),#659,.T.);
#1013=ADVANCED_FACE('',(#636,#637),#141,.F.);
#1014=ADVANCED_FACE('',(#638),#660,.F.);
#1015=ADVANCED_FACE('',(#639),#661,.F.);
#1016=ADVANCED_FACE('',(#640),#142,.F.);
#1017=ADVANCED_FACE('',(#641),#143,.T.);
#1018=ADVANCED_FACE('',(#642),#144,.T.);
#1019=ADVANCED_FACE('',(#643),#145,.T.);
#1020=ADVANCED_FACE('',(#644),#146,.T.);
#1021=ADVANCED_FACE('',(#645),#118,.T.);
#1022=ADVANCED_FACE('',(#646),#119,.T.);
#1023=CLOSED_SHELL('',(#978,#979,#980,#981,#982,#983,#984,#985,#986,#987,
#988,#989,#990,#991,#992,#993,#994,#995,#996,#997,#998,#999,#1000,#1001,
#1002,#1003,#1004,#1005,#1006,#1007,#1008,#1009,#1010,#1011,#1012,#1013,
#1014,#1015,#1016,#1017,#1018,#1019,#1020,#1021,#1022));
#1024=MANIFOLD_SOLID_BREP('60612202111308_Shelding',#1023);
#1025=SHAPE_DEFINITION_REPRESENTATION(#1559,#1026);
#1026=SHAPE_REPRESENTATION('60612202111308',(#1027),#1554);
#1027=AXIS2_PLACEMENT_3D('',#1339,#1117,#1118);
#1028=AXIS2_PLACEMENT_3D('',#1340,#1119,#1120);
#1029=AXIS2_PLACEMENT_3D('',#1341,#1121,#1122);
#1030=AXIS2_PLACEMENT_3D('',#1343,#1123,#1124);
#1031=AXIS2_PLACEMENT_3D('',#1345,#1125,#1126);
#1032=AXIS2_PLACEMENT_3D('',#1346,#1127,#1128);
#1033=AXIS2_PLACEMENT_3D('',#1348,#1129,#1130);
#1034=AXIS2_PLACEMENT_3D('',#1349,#1131,#1132);
#1035=AXIS2_PLACEMENT_3D('',#1350,#1133,#1134);
#1036=AXIS2_PLACEMENT_3D('',#1352,#1135,#1136);
#1037=AXIS2_PLACEMENT_3D('',#1354,#1137,#1138);
#1038=AXIS2_PLACEMENT_3D('',#1355,#1139,#1140);
#1039=AXIS2_PLACEMENT_3D('',#1357,#1141,#1142);
#1040=AXIS2_PLACEMENT_3D('',#1358,#1143,#1144);
#1041=AXIS2_PLACEMENT_3D('',#1359,#1145,#1146);
#1042=AXIS2_PLACEMENT_3D('',#1364,#1148,#1149);
#1043=AXIS2_PLACEMENT_3D('',#1367,#1151,#1152);
#1044=AXIS2_PLACEMENT_3D('',#1370,#1154,#1155);
#1045=AXIS2_PLACEMENT_3D('',#1373,#1157,#1158);
#1046=AXIS2_PLACEMENT_3D('',#1377,#1161,#1162);
#1047=AXIS2_PLACEMENT_3D('',#1386,#1167,#1168);
#1048=AXIS2_PLACEMENT_3D('',#1387,#1169,#1170);
#1049=AXIS2_PLACEMENT_3D('',#1391,#1172,#1173);
#1050=AXIS2_PLACEMENT_3D('',#1392,#1174,#1175);
#1051=AXIS2_PLACEMENT_3D('',#1393,#1176,#1177);
#1052=AXIS2_PLACEMENT_3D('',#1396,#1179,#1180);
#1053=AXIS2_PLACEMENT_3D('',#1397,#1181,#1182);
#1054=AXIS2_PLACEMENT_3D('',#1401,#1184,#1185);
#1055=AXIS2_PLACEMENT_3D('',#1415,#1193,#1194);
#1056=AXIS2_PLACEMENT_3D('',#1417,#1195,#1196);
#1057=AXIS2_PLACEMENT_3D('',#1418,#1197,#1198);
#1058=AXIS2_PLACEMENT_3D('',#1420,#1199,#1200);
#1059=AXIS2_PLACEMENT_3D('',#1421,#1201,#1202);
#1060=AXIS2_PLACEMENT_3D('',#1423,#1203,#1204);
#1061=AXIS2_PLACEMENT_3D('',#1424,#1205,#1206);
#1062=AXIS2_PLACEMENT_3D('',#1426,#1207,#1208);
#1063=AXIS2_PLACEMENT_3D('',#1427,#1209,#1210);
#1064=AXIS2_PLACEMENT_3D('',#1429,#1211,#1212);
#1065=AXIS2_PLACEMENT_3D('',#1430,#1213,#1214);
#1066=AXIS2_PLACEMENT_3D('',#1436,#1218,#1219);
#1067=AXIS2_PLACEMENT_3D('',#1440,#1222,#1223);
#1068=AXIS2_PLACEMENT_3D('',#1444,#1226,#1227);
#1069=AXIS2_PLACEMENT_3D('',#1445,#1228,#1229);
#1070=AXIS2_PLACEMENT_3D('',#1448,#1231,#1232);
#1071=AXIS2_PLACEMENT_3D('',#1452,#1235,#1236);
#1072=AXIS2_PLACEMENT_3D('',#1453,#1237,#1238);
#1073=AXIS2_PLACEMENT_3D('',#1456,#1240,#1241);
#1074=AXIS2_PLACEMENT_3D('',#1460,#1244,#1245);
#1075=AXIS2_PLACEMENT_3D('',#1464,#1248,#1249);
#1076=AXIS2_PLACEMENT_3D('',#1468,#1252,#1253);
#1077=AXIS2_PLACEMENT_3D('',#1470,#1255,#1256);
#1078=AXIS2_PLACEMENT_3D('',#1471,#1257,#1258);
#1079=AXIS2_PLACEMENT_3D('',#1473,#1259,#1260);
#1080=AXIS2_PLACEMENT_3D('',#1474,#1261,#1262);
#1081=AXIS2_PLACEMENT_3D('',#1476,#1263,#1264);
#1082=AXIS2_PLACEMENT_3D('',#1477,#1265,#1266);
#1083=AXIS2_PLACEMENT_3D('',#1479,#1267,#1268);
#1084=AXIS2_PLACEMENT_3D('',#1480,#1269,#1270);
#1085=AXIS2_PLACEMENT_3D('',#1482,#1271,#1272);
#1086=AXIS2_PLACEMENT_3D('',#1483,#1273,#1274);
#1087=AXIS2_PLACEMENT_3D('',#1486,#1275,#1276);
#1088=AXIS2_PLACEMENT_3D('',#1488,#1277,#1278);
#1089=AXIS2_PLACEMENT_3D('',#1490,#1279,#1280);
#1090=AXIS2_PLACEMENT_3D('',#1492,#1281,#1282);
#1091=AXIS2_PLACEMENT_3D('',#1494,#1283,#1284);
#1092=AXIS2_PLACEMENT_3D('',#1496,#1285,#1286);
#1093=AXIS2_PLACEMENT_3D('',#1498,#1287,#1288);
#1094=AXIS2_PLACEMENT_3D('',#1499,#1289,#1290);
#1095=AXIS2_PLACEMENT_3D('',#1501,#1291,#1292);
#1096=AXIS2_PLACEMENT_3D('',#1502,#1293,#1294);
#1097=AXIS2_PLACEMENT_3D('',#1504,#1295,#1296);
#1098=AXIS2_PLACEMENT_3D('',#1505,#1297,#1298);
#1099=AXIS2_PLACEMENT_3D('',#1507,#1299,#1300);
#1100=AXIS2_PLACEMENT_3D('',#1508,#1301,#1302);
#1101=AXIS2_PLACEMENT_3D('',#1509,#1303,#1304);
#1102=AXIS2_PLACEMENT_3D('',#1512,#1305,#1306);
#1103=AXIS2_PLACEMENT_3D('',#1514,#1307,#1308);
#1104=AXIS2_PLACEMENT_3D('',#1516,#1309,#1310);
#1105=AXIS2_PLACEMENT_3D('',#1517,#1311,#1312);
#1106=AXIS2_PLACEMENT_3D('',#1518,#1313,#1314);
#1107=AXIS2_PLACEMENT_3D('',#1521,#1315,#1316);
#1108=AXIS2_PLACEMENT_3D('',#1523,#1317,#1318);
#1109=AXIS2_PLACEMENT_3D('',#1525,#1319,#1320);
#1110=AXIS2_PLACEMENT_3D('',#1526,#1321,#1322);
#1111=AXIS2_PLACEMENT_3D('',#1531,#1327,#1328);
#1112=AXIS2_PLACEMENT_3D('',#1536,#1329,#1330);
#1113=AXIS2_PLACEMENT_3D('',#1541,#1331,#1332);
#1114=AXIS2_PLACEMENT_3D('',#1546,#1333,#1334);
#1115=AXIS2_PLACEMENT_3D('',#1551,#1335,#1336);
#1116=AXIS2_PLACEMENT_3D('',#1552,#1337,#1338);
#1117=DIRECTION('',(0.,0.,1.));
#1118=DIRECTION('',(1.,0.,0.));
#1119=DIRECTION('',(5.48583561565393E-16,-3.065277078301E-16,-1.));
#1120=DIRECTION('',(1.,-3.7470027081099E-16,1.26763717039712E-15));
#1121=DIRECTION('',(8.71615519095922E-16,-1.78228242251096E-16,-1.));
#1122=DIRECTION('',(1.,5.55111512312578E-17,9.93774036252168E-18));
#1123=DIRECTION('',(5.48583561565393E-16,-3.065277078301E-16,-1.));
#1124=DIRECTION('',(1.,-3.7470027081099E-16,1.26763717039712E-15));
#1125=DIRECTION('',(5.48583561565393E-16,-3.065277078301E-16,-1.));
#1126=DIRECTION('',(1.,-3.7470027081099E-16,1.26763717039712E-15));
#1127=DIRECTION('',(5.48583561565393E-16,-3.065277078301E-16,-1.));
#1128=DIRECTION('',(1.,-3.7470027081099E-16,1.26763717039712E-15));
#1129=DIRECTION('',(-5.48583561565393E-16,3.065277078301E-16,1.));
#1130=DIRECTION('',(-1.,3.7470027081099E-16,-1.26763717039712E-15));
#1131=DIRECTION('',(7.49150839181187E-16,-1.78228242251096E-16,-1.));
#1132=DIRECTION('',(-1.,-5.55111512312578E-17,1.12526939552214E-16));
#1133=DIRECTION('',(7.49150839181187E-16,-1.78228242251096E-16,-1.));
#1134=DIRECTION('',(-1.,-5.55111512312578E-17,1.12526939552214E-16));
#1135=DIRECTION('',(7.49150839181187E-16,-1.78228242251096E-16,-1.));
#1136=DIRECTION('',(-1.,-5.55111512312578E-17,1.12526939552214E-16));
#1137=DIRECTION('',(7.49150839181187E-16,-1.78228242251096E-16,-1.));
#1138=DIRECTION('',(-1.,-5.55111512312578E-17,1.12526939552214E-16));
#1139=DIRECTION('',(7.49150839181187E-16,-1.78228242251096E-16,-1.));
#1140=DIRECTION('',(-1.,-5.55111512312578E-17,1.12526939552214E-16));
#1141=DIRECTION('',(8.71615519095922E-16,-1.78228242251096E-16,-1.));
#1142=DIRECTION('',(1.66533453693773E-16,1.,6.80791394887771E-17));
#1143=DIRECTION('',(0.,0.,1.));
#1144=DIRECTION('',(1.,0.,0.));
#1145=DIRECTION('',(0.,0.,-1.));
#1146=DIRECTION('',(1.,0.,0.));
#1147=DIRECTION('',(0.,0.,1.));
#1148=DIRECTION('',(0.,0.,-1.));
#1149=DIRECTION('',(1.,0.,0.));
#1150=DIRECTION('',(0.,0.,1.));
#1151=DIRECTION('',(0.,0.,-1.));
#1152=DIRECTION('',(-1.,0.,0.));
#1153=DIRECTION('',(1.,9.85061149420168E-17,0.));
#1154=DIRECTION('',(0.,0.,1.));
#1155=DIRECTION('',(1.,0.,0.));
#1156=DIRECTION('',(-1.,0.,0.));
#1157=DIRECTION('',(0.,1.,0.));
#1158=DIRECTION('',(0.,0.,1.));
#1159=DIRECTION('',(-1.,0.,0.));
#1160=DIRECTION('',(0.,0.,1.));
#1161=DIRECTION('',(0.,-1.,0.));
#1162=DIRECTION('',(0.,0.,-1.));
#1163=DIRECTION('',(1.,0.,0.));
#1164=DIRECTION('',(0.,0.,1.));
#1165=DIRECTION('',(1.,0.,0.));
#1166=DIRECTION('',(0.,0.,1.));
#1167=DIRECTION('',(0.,0.,-1.));
#1168=DIRECTION('',(-1.,0.,0.));
#1169=DIRECTION('',(0.,0.,-1.));
#1170=DIRECTION('',(-1.,0.,0.));
#1171=DIRECTION('',(-1.,-9.85061149420166E-17,0.));
#1172=DIRECTION('',(0.,0.,1.));
#1173=DIRECTION('',(-1.,0.,0.));
#1174=DIRECTION('',(0.,0.,1.));
#1175=DIRECTION('',(1.,0.,0.));
#1176=DIRECTION('',(0.,0.,1.));
#1177=DIRECTION('',(-1.,0.,0.));
#1178=DIRECTION('',(0.,0.,1.));
#1179=DIRECTION('',(0.,0.,-1.));
#1180=DIRECTION('',(-1.,0.,0.));
#1181=DIRECTION('',(0.,0.,-1.));
#1182=DIRECTION('',(1.,0.,0.));
#1183=DIRECTION('',(1.,1.41689462170733E-16,0.));
#1184=DIRECTION('',(0.,0.,-1.));
#1185=DIRECTION('',(-1.,0.,0.));
#1186=DIRECTION('',(-1.,-9.85061149420166E-17,0.));
#1187=DIRECTION('',(0.,-1.,0.));
#1188=DIRECTION('',(0.707106781186548,0.707106781186548,0.));
#1189=DIRECTION('',(-1.,0.,0.));
#1190=DIRECTION('',(0.707106781186548,-0.707106781186548,0.));
#1191=DIRECTION('',(0.,1.,0.));
#1192=DIRECTION('',(1.,9.85061149420168E-17,0.));
#1193=DIRECTION('',(0.,0.,1.));
#1194=DIRECTION('',(-1.,0.,0.));
#1195=DIRECTION('',(0.,0.,-1.));
#1196=DIRECTION('',(-1.,0.,0.));
#1197=DIRECTION('',(0.,0.,1.));
#1198=DIRECTION('',(-1.,0.,0.));
#1199=DIRECTION('',(0.,0.,1.));
#1200=DIRECTION('',(1.,0.,0.));
#1201=DIRECTION('',(0.,0.,-1.));
#1202=DIRECTION('',(-1.,0.,0.));
#1203=DIRECTION('',(0.,0.,-1.));
#1204=DIRECTION('',(-1.,0.,0.));
#1205=DIRECTION('',(0.,0.,-1.));
#1206=DIRECTION('',(-1.,0.,0.));
#1207=DIRECTION('',(0.,0.,1.));
#1208=DIRECTION('',(1.,0.,0.));
#1209=DIRECTION('',(0.,0.,-1.));
#1210=DIRECTION('',(-1.,0.,0.));
#1211=DIRECTION('',(0.,0.,-1.));
#1212=DIRECTION('',(-1.,0.,0.));
#1213=DIRECTION('',(0.707106781186548,0.707106781186548,0.));
#1214=DIRECTION('',(0.,0.,-1.));
#1215=DIRECTION('',(-0.707106781186548,0.707106781186548,0.));
#1216=DIRECTION('',(0.,0.,1.));
#1217=DIRECTION('',(0.,0.,-1.));
#1218=DIRECTION('',(-1.,0.,0.));
#1219=DIRECTION('',(0.,0.,1.));
#1220=DIRECTION('',(0.,1.,0.));
#1221=DIRECTION('',(0.,0.,-1.));
#1222=DIRECTION('',(5.70632722360792E-17,-1.,0.));
#1223=DIRECTION('',(1.,5.70632722360792E-17,0.));
#1224=DIRECTION('',(0.,0.,-1.));
#1225=DIRECTION('',(-1.,-5.70632722360792E-17,0.));
#1226=DIRECTION('',(0.,0.,-1.));
#1227=DIRECTION('',(-1.,0.,0.));
#1228=DIRECTION('',(0.,0.,-1.));
#1229=DIRECTION('',(1.,0.,0.));
#1230=DIRECTION('',(0.,0.,-1.));
#1231=DIRECTION('',(-1.41689462170733E-16,1.,0.));
#1232=DIRECTION('',(-1.,-1.41689462170733E-16,0.));
#1233=DIRECTION('',(1.,1.41689462170733E-16,0.));
#1234=DIRECTION('',(0.,0.,-1.));
#1235=DIRECTION('',(0.,0.,-1.));
#1236=DIRECTION('',(-1.,0.,0.));
#1237=DIRECTION('',(0.,0.,-1.));
#1238=DIRECTION('',(-1.,0.,0.));
#1239=DIRECTION('',(0.,0.,-1.));
#1240=DIRECTION('',(7.98885811305108E-16,-1.,0.));
#1241=DIRECTION('',(1.,7.98885811305108E-16,0.));
#1242=DIRECTION('',(0.,0.,-1.));
#1243=DIRECTION('',(-1.,-7.98885811305108E-16,0.));
#1244=DIRECTION('',(1.,0.,0.));
#1245=DIRECTION('',(0.,0.,-1.));
#1246=DIRECTION('',(0.,-1.,0.));
#1247=DIRECTION('',(0.,0.,-1.));
#1248=DIRECTION('',(-0.707106781186548,0.707106781186548,0.));
#1249=DIRECTION('',(0.,0.,-1.));
#1250=DIRECTION('',(-0.707106781186548,-0.707106781186548,0.));
#1251=DIRECTION('',(0.,0.,1.));
#1252=DIRECTION('',(0.,-1.,0.));
#1253=DIRECTION('',(0.,0.,-1.));
#1254=DIRECTION('',(-1.,0.,0.));
#1255=DIRECTION('',(0.,0.,-1.));
#1256=DIRECTION('',(-1.,0.,0.));
#1257=DIRECTION('',(0.,0.,-1.));
#1258=DIRECTION('',(1.,0.,0.));
#1259=DIRECTION('',(0.,0.,1.));
#1260=DIRECTION('',(1.,0.,0.));
#1261=DIRECTION('',(0.,0.,-1.));
#1262=DIRECTION('',(1.,0.,0.));
#1263=DIRECTION('',(0.,0.,-1.));
#1264=DIRECTION('',(-1.,0.,0.));
#1265=DIRECTION('',(0.,0.,-1.));
#1266=DIRECTION('',(1.,0.,0.));
#1267=DIRECTION('',(0.,0.,1.));
#1268=DIRECTION('',(1.,0.,0.));
#1269=DIRECTION('',(0.,0.,-1.));
#1270=DIRECTION('',(-1.,0.,0.));
#1271=DIRECTION('',(-8.71615519095922E-16,1.78228242251096E-16,1.));
#1272=DIRECTION('',(-1.66533453693773E-16,-1.,-6.80791394887771E-17));
#1273=DIRECTION('',(5.48583561565393E-16,-3.065277078301E-16,-1.));
#1274=DIRECTION('',(-1.,0.,-5.48583561565393E-16));
#1275=DIRECTION('',(6.93509503754311E-16,-0.999687646408123,-0.0249921911602033));
#1276=DIRECTION('',(-8.54550118805724E-16,-0.0249921911602033,0.999687646408123));
#1277=DIRECTION('',(5.48583561565393E-16,-3.065277078301E-16,-1.));
#1278=DIRECTION('',(-1.,0.,-5.48583561565393E-16));
#1279=DIRECTION('',(-6.66088893278336E-16,0.999687646408123,-0.024992191160203));
#1280=DIRECTION('',(-8.88540078731541E-16,0.024992191160203,0.999687646408123));
#1281=DIRECTION('',(5.48583561565393E-16,-3.065277078301E-16,-1.));
#1282=DIRECTION('',(-1.,0.,-5.48583561565393E-16));
#1283=DIRECTION('',(-6.66088893278336E-16,0.999687646408123,-0.024992191160203));
#1284=DIRECTION('',(-8.88540078731541E-16,0.024992191160203,0.999687646408123));
#1285=DIRECTION('',(5.48583561565393E-16,-3.065277078301E-16,-1.));
#1286=DIRECTION('',(-1.,0.,-5.48583561565393E-16));
#1287=DIRECTION('',(6.93509503754311E-16,-0.999687646408123,-0.0249921911602033));
#1288=DIRECTION('',(-8.54550118805724E-16,-0.0249921911602033,0.999687646408123));
#1289=DIRECTION('',(8.71615519095922E-16,-1.78228242251096E-16,-1.));
#1290=DIRECTION('',(1.,5.55111512312578E-17,9.93774036252168E-18));
#1291=DIRECTION('',(8.71615519095922E-16,-1.78228242251096E-16,-1.));
#1292=DIRECTION('',(1.66533453693773E-16,1.,6.80791394887771E-17));
#1293=DIRECTION('',(8.71615519095922E-16,-1.78228242251096E-16,-1.));
#1294=DIRECTION('',(1.,5.55111512312578E-17,9.93774036252168E-18));
#1295=DIRECTION('',(8.71615519095922E-16,-1.78228242251096E-16,-1.));
#1296=DIRECTION('',(1.66533453693773E-16,1.,6.80791394887771E-17));
#1297=DIRECTION('',(8.71615519095922E-16,-1.78228242251096E-16,-1.));
#1298=DIRECTION('',(1.,5.55111512312578E-17,9.93774036252168E-18));
#1299=DIRECTION('',(8.71615519095922E-16,-1.78228242251096E-16,-1.));
#1300=DIRECTION('',(1.66533453693773E-16,1.,6.80791394887771E-17));
#1301=DIRECTION('',(-5.48583561565393E-16,3.065277078301E-16,1.));
#1302=DIRECTION('',(-1.,3.7470027081099E-16,-1.26763717039712E-15));
#1303=DIRECTION('',(-6.66088893278336E-16,0.999687646408123,-0.024992191160203));
#1304=DIRECTION('',(-5.65407189482401E-16,0.0249921911602033,0.999687646408123));
#1305=DIRECTION('',(5.48583561565393E-16,-3.065277078301E-16,-1.));
#1306=DIRECTION('',(1.,-3.7470027081099E-16,1.26763717039712E-15));
#1307=DIRECTION('',(-6.66088893278336E-16,0.999687646408123,-0.024992191160203));
#1308=DIRECTION('',(-5.65407189482401E-16,0.0249921911602033,0.999687646408123));
#1309=DIRECTION('',(5.48583561565393E-16,-3.065277078301E-16,-1.));
#1310=DIRECTION('',(-1.,3.7470027081099E-16,-1.26763717039712E-15));
#1311=DIRECTION('',(-5.48583561565393E-16,3.065277078301E-16,1.));
#1312=DIRECTION('',(-1.,3.7470027081099E-16,-1.26763717039712E-15));
#1313=DIRECTION('',(6.93509503754311E-16,-0.999687646408123,-0.0249921911602033));
#1314=DIRECTION('',(-5.31417229556585E-16,-0.024992191160203,0.999687646408123));
#1315=DIRECTION('',(5.48583561565393E-16,-3.065277078301E-16,-1.));
#1316=DIRECTION('',(1.,-3.7470027081099E-16,1.26763717039712E-15));
#1317=DIRECTION('',(6.93509503754311E-16,-0.999687646408123,-0.0249921911602033));
#1318=DIRECTION('',(-5.31417229556585E-16,-0.024992191160203,0.999687646408123));
#1319=DIRECTION('',(5.48583561565393E-16,-3.065277078301E-16,-1.));
#1320=DIRECTION('',(-1.,3.7470027081099E-16,-1.26763717039712E-15));
#1321=DIRECTION('',(5.48583561565393E-16,-3.065277078301E-16,-1.));
#1322=DIRECTION('',(1.,-3.7470027081099E-16,1.26763717039712E-15));
#1323=DIRECTION('',(-1.,3.7470027081099E-16,-1.26763717039712E-15));
#1324=DIRECTION('',(-1.,3.7470027081099E-16,-1.26763717039712E-15));
#1325=DIRECTION('',(-1.,3.7470027081099E-16,-1.26763717039712E-15));
#1326=DIRECTION('',(-1.,3.7470027081099E-16,-1.26763717039712E-15));
#1327=DIRECTION('',(6.93509503754311E-16,-0.999687646408123,-0.0249921911602033));
#1328=DIRECTION('',(-5.31417229556585E-16,-0.024992191160203,0.999687646408123));
#1329=DIRECTION('',(-6.66088893278336E-16,0.999687646408123,-0.024992191160203));
#1330=DIRECTION('',(5.65407189482401E-16,-0.0249921911602033,-0.999687646408123));
#1331=DIRECTION('',(6.93509503754311E-16,-0.999687646408123,-0.0249921911602033));
#1332=DIRECTION('',(-5.31417229556585E-16,-0.024992191160203,0.999687646408123));
#1333=DIRECTION('',(-6.66088893278336E-16,0.999687646408123,-0.024992191160203));
#1334=DIRECTION('',(5.65407189482401E-16,-0.0249921911602033,-0.999687646408123));
#1335=DIRECTION('',(5.48583561565393E-16,-3.065277078301E-16,-1.));
#1336=DIRECTION('',(1.,-3.7470027081099E-16,1.26763717039712E-15));
#1337=DIRECTION('',(5.48583561565393E-16,-3.065277078301E-16,-1.));
#1338=DIRECTION('',(1.,-3.7470027081099E-16,1.26763717039712E-15));
#1339=CARTESIAN_POINT('',(0.,0.,0.));
#1340=CARTESIAN_POINT('',(1.05465477810606E-15,-2.15656173123826E-16,0.7));
#1341=CARTESIAN_POINT('',(1.64735333109129E-15,-3.36851377854571E-16,0.019999999999999));
#1342=CARTESIAN_POINT('',(0.480000000000002,-3.10206025263567E-16,0.019999999999999));
#1343=CARTESIAN_POINT('',(3.05698477781975E-15,-1.33448230670369E-15,-2.95));
#1344=CARTESIAN_POINT('',(0.480000000000003,-1.51433843669297E-15,-2.95));
#1345=CARTESIAN_POINT('',(3.11184313397629E-15,-1.3651350774867E-15,-3.05));
#1346=CARTESIAN_POINT('',(3.11184313397629E-15,-1.3651350774867E-15,-3.05));
#1347=CARTESIAN_POINT('',(0.380000000000003,-1.50752118039488E-15,-3.05));
#1348=CARTESIAN_POINT('',(3.11184313397629E-15,-1.3651350774867E-15,-3.05));
#1349=CARTESIAN_POINT('',(-1.34815096107106E-30,1.92592994438724E-31,1.91));
#1350=CARTESIAN_POINT('',(8.98981007017422E-16,-2.13873890701315E-16,0.709999999999999));
#1351=CARTESIAN_POINT('',(-1.525,-2.98528396328983E-16,0.71));
#1352=CARTESIAN_POINT('',(1.41589508605244E-15,-3.36851377854571E-16,0.0199999999999994));
#1353=CARTESIAN_POINT('',(-1.525,-4.21505883482239E-16,0.0199999999999996));
#1354=CARTESIAN_POINT('',(1.71,-1.18949822095864E-16,0.709999999999999));
#1355=CARTESIAN_POINT('',(8.98981007017422E-16,-2.13873890701315E-16,0.709999999999999));
#1356=CARTESIAN_POINT('',(-1.71,-3.08797959306766E-16,0.71));
#1357=CARTESIAN_POINT('',(1.64735333109129E-15,-3.36851377854571E-16,0.0199999999999992));
#1358=CARTESIAN_POINT('',(0.,0.,-3.05));
#1359=CARTESIAN_POINT('',(0.,0.,0.));
#1360=CARTESIAN_POINT('',(-2.2493554632383,-0.48,0.));
#1361=CARTESIAN_POINT('',(-2.29686743196032,0.12,0.));
#1362=CARTESIAN_POINT('',(-2.2493554632383,-0.48,-3.05));
#1363=CARTESIAN_POINT('',(-2.2493554632383,-0.48,-3.05));
#1364=CARTESIAN_POINT('',(0.,0.,-3.05));
#1365=CARTESIAN_POINT('',(-2.29686743196032,0.12,-3.05));
#1366=CARTESIAN_POINT('',(-2.29686743196032,0.12,-3.05));
#1367=CARTESIAN_POINT('',(0.,0.,-3.05));
#1368=CARTESIAN_POINT('',(-2.2493554632383,-0.48,-3.05));
#1369=CARTESIAN_POINT('',(-3.35,-0.48,-3.05));
#1370=CARTESIAN_POINT('',(4.33680868994202E-16,-0.48,-3.05));
#1371=CARTESIAN_POINT('',(-3.2958306995354,0.12,-3.05));
#1372=CARTESIAN_POINT('',(-2.29686743196032,0.12,-3.05));
#1373=CARTESIAN_POINT('',(-2.29686743196032,0.12,-3.05));
#1374=CARTESIAN_POINT('',(-2.29686743196032,0.12,0.));
#1375=CARTESIAN_POINT('',(-3.2958306995354,0.12,0.));
#1376=CARTESIAN_POINT('',(-3.2958306995354,0.12,-3.05));
#1377=CARTESIAN_POINT('',(3.2958306995354,0.12,-3.05));
#1378=CARTESIAN_POINT('',(3.2958306995354,0.12,0.));
#1379=CARTESIAN_POINT('',(2.29686743196032,0.119999999999998,0.));
#1380=CARTESIAN_POINT('',(3.2958306995354,0.12,0.));
#1381=CARTESIAN_POINT('',(3.2958306995354,0.119999999999999,-3.05));
#1382=CARTESIAN_POINT('',(3.2958306995354,0.119999999999999,-3.05));
#1383=CARTESIAN_POINT('',(3.2958306995354,0.12,-3.05));
#1384=CARTESIAN_POINT('',(2.29686743196032,0.119999999999998,-3.05));
#1385=CARTESIAN_POINT('',(2.29686743196032,0.119999999999998,-3.05));
#1386=CARTESIAN_POINT('',(4.33680868994202E-16,-0.48,-3.05));
#1387=CARTESIAN_POINT('',(4.33680868994202E-16,-0.48,-3.05));
#1388=CARTESIAN_POINT('',(3.35,-0.48,-3.05));
#1389=CARTESIAN_POINT('',(3.35,-0.48,-3.05));
#1390=CARTESIAN_POINT('',(2.2493554632383,-0.48,-3.05));
#1391=CARTESIAN_POINT('',(0.,0.,-3.05));
#1392=CARTESIAN_POINT('',(0.,0.,-3.05));
#1393=CARTESIAN_POINT('',(0.,0.,0.));
#1394=CARTESIAN_POINT('',(2.2493554632383,-0.48,0.));
#1395=CARTESIAN_POINT('',(2.2493554632383,-0.48,-3.05));
#1396=CARTESIAN_POINT('',(4.33680868994202E-16,-0.48,0.));
#1397=CARTESIAN_POINT('',(4.33680868994202E-16,-0.48,0.));
#1398=CARTESIAN_POINT('',(-1.53039210661843,2.5,0.));
#1399=CARTESIAN_POINT('',(-1.53039210661843,2.5,0.));
#1400=CARTESIAN_POINT('',(1.53039210661843,2.5,0.));
#1401=CARTESIAN_POINT('',(4.33680868994202E-16,-0.48,0.));
#1402=CARTESIAN_POINT('',(3.35,-0.48,0.));
#1403=CARTESIAN_POINT('',(2.4,-0.48,0.));
#1404=CARTESIAN_POINT('',(2.4,-0.48,0.));
#1405=CARTESIAN_POINT('',(2.4,-2.33,0.));
#1406=CARTESIAN_POINT('',(2.125,-2.605,0.));
#1407=CARTESIAN_POINT('',(2.23,-2.5,0.));
#1408=CARTESIAN_POINT('',(2.4,-2.5,0.));
#1409=CARTESIAN_POINT('',(-2.23,-2.5,0.));
#1410=CARTESIAN_POINT('',(-2.125,-2.605,0.));
#1411=CARTESIAN_POINT('',(-2.4,-2.33,0.));
#1412=CARTESIAN_POINT('',(-2.4,-2.5,0.));
#1413=CARTESIAN_POINT('',(-2.4,-0.48,0.));
#1414=CARTESIAN_POINT('',(-2.2493554632383,-0.48,0.));
#1415=CARTESIAN_POINT('',(0.,0.,0.));
#1416=CARTESIAN_POINT('',(-1.775,0.,0.));
#1417=CARTESIAN_POINT('',(0.,0.,0.05));
#1418=CARTESIAN_POINT('',(0.,0.,0.05));
#1419=CARTESIAN_POINT('',(-1.775,0.,0.05));
#1420=CARTESIAN_POINT('',(0.,0.,0.05));
#1421=CARTESIAN_POINT('',(0.,0.,0.0500000000000008));
#1422=CARTESIAN_POINT('',(-1.575,0.,0.0500000000000008));
#1423=CARTESIAN_POINT('',(0.,0.,0.6));
#1424=CARTESIAN_POINT('',(0.,0.,0.699999999999999));
#1425=CARTESIAN_POINT('',(-1.575,0.,0.699999999999999));
#1426=CARTESIAN_POINT('',(0.,1.575,0.699999999999999));
#1427=CARTESIAN_POINT('',(0.,0.,0.699999999999999));
#1428=CARTESIAN_POINT('',(-1.71,0.,0.699999999999999));
#1429=CARTESIAN_POINT('',(0.,0.,0.6));
#1430=CARTESIAN_POINT('',(-2.23,-2.5,6.25));
#1431=CARTESIAN_POINT('',(-2.23,-2.5,6.25));
#1432=CARTESIAN_POINT('',(-2.4,-2.33,6.25));
#1433=CARTESIAN_POINT('',(-2.23,-2.5,6.25));
#1434=CARTESIAN_POINT('',(-2.4,-2.33,6.25));
#1435=CARTESIAN_POINT('',(-2.23,-2.5,6.25));
#1436=CARTESIAN_POINT('',(-2.4,-2.5,6.25));
#1437=CARTESIAN_POINT('',(-2.4,-2.5,6.25));
#1438=CARTESIAN_POINT('',(-2.4,-0.48,6.25));
#1439=CARTESIAN_POINT('',(-2.4,-0.48,6.25));
#1440=CARTESIAN_POINT('',(-2.4,-0.48,6.25));
#1441=CARTESIAN_POINT('',(-3.35,-0.48,6.25));
#1442=CARTESIAN_POINT('',(-3.35,-0.48,6.25));
#1443=CARTESIAN_POINT('',(-2.4,-0.48,6.25));
#1444=CARTESIAN_POINT('',(4.33680868994202E-16,-0.48,6.25));
#1445=CARTESIAN_POINT('',(4.33680868994202E-16,-0.48,6.25));
#1446=CARTESIAN_POINT('',(-1.53039210661843,2.5,6.25));
#1447=CARTESIAN_POINT('',(-1.53039210661843,2.5,6.25));
#1448=CARTESIAN_POINT('',(-1.53039210661843,2.5,6.25));
#1449=CARTESIAN_POINT('',(-1.53039210661843,2.5,6.25));
#1450=CARTESIAN_POINT('',(1.53039210661843,2.5,6.25));
#1451=CARTESIAN_POINT('',(1.53039210661843,2.5,6.25));
#1452=CARTESIAN_POINT('',(4.33680868994202E-16,-0.48,6.25));
#1453=CARTESIAN_POINT('',(4.33680868994202E-16,-0.48,6.25));
#1454=CARTESIAN_POINT('',(3.35,-0.48,6.25));
#1455=CARTESIAN_POINT('',(3.35,-0.48,6.25));
#1456=CARTESIAN_POINT('',(3.35,-0.479999999999999,6.25));
#1457=CARTESIAN_POINT('',(2.4,-0.48,6.25));
#1458=CARTESIAN_POINT('',(2.4,-0.48,6.25));
#1459=CARTESIAN_POINT('',(3.35,-0.479999999999999,6.25));
#1460=CARTESIAN_POINT('',(2.4,-0.48,6.25));
#1461=CARTESIAN_POINT('',(2.4,-0.48,6.25));
#1462=CARTESIAN_POINT('',(2.4,-2.33,6.25));
#1463=CARTESIAN_POINT('',(2.4,-2.33,6.25));
#1464=CARTESIAN_POINT('',(2.4,-2.33,6.25));
#1465=CARTESIAN_POINT('',(2.4,-2.33,6.25));
#1466=CARTESIAN_POINT('',(2.23,-2.5,6.25));
#1467=CARTESIAN_POINT('',(2.23,-2.5,6.25));
#1468=CARTESIAN_POINT('',(2.4,-2.5,6.25));
#1469=CARTESIAN_POINT('',(2.4,-2.5,6.25));
#1470=CARTESIAN_POINT('',(4.33680868994202E-16,-0.48,6.25));
#1471=CARTESIAN_POINT('',(0.,0.,6.25));
#1472=CARTESIAN_POINT('',(1.725,0.,6.25));
#1473=CARTESIAN_POINT('',(0.,0.,2.01));
#1474=CARTESIAN_POINT('',(0.,0.,2.01));
#1475=CARTESIAN_POINT('',(1.725,0.,2.01));
#1476=CARTESIAN_POINT('',(0.,0.,2.01));
#1477=CARTESIAN_POINT('',(0.,0.,2.01));
#1478=CARTESIAN_POINT('',(1.,0.,2.01));
#1479=CARTESIAN_POINT('',(0.,0.,0.));
#1480=CARTESIAN_POINT('',(0.,0.,1.91));
#1481=CARTESIAN_POINT('',(-1.,0.,1.91));
#1482=CARTESIAN_POINT('',(1.64735333109129E-15,-3.36851377854571E-16,0.019999999999999));
#1483=CARTESIAN_POINT('',(-1.13967946815551E-15,1.01045465819658E-15,4.7));
#1484=CARTESIAN_POINT('',(0.477120267857065,0.0525000000000002,4.69999999999999));
#1485=CARTESIAN_POINT('',(-0.47712026785707,0.0524999999999992,4.7));
#1486=CARTESIAN_POINT('',(-4.262199888379E-15,8.71536104607847E-16,6.79999999999993));
#1487=CARTESIAN_POINT('',(0.469467783772219,0.1,2.8));
#1488=CARTESIAN_POINT('',(-7.75737811995374E-16,1.58623135603476E-16,2.8));
#1489=CARTESIAN_POINT('',(0.46946778377222,-0.099999999999999,2.8));
#1490=CARTESIAN_POINT('',(-4.26219988837908E-15,8.71536104607863E-16,6.80000000000002));
#1491=CARTESIAN_POINT('',(0.477120267857067,-0.0524999999999992,4.7));
#1492=CARTESIAN_POINT('',(-1.13967946815551E-15,1.01045465819658E-15,4.7));
#1493=CARTESIAN_POINT('',(-0.477120267857069,-0.0524999999999998,4.7));
#1494=CARTESIAN_POINT('',(-4.26219988837908E-15,8.71536104607863E-16,6.80000000000002));
#1495=CARTESIAN_POINT('',(-0.469467783772221,-0.0999999999999999,2.79999999999999));
#1496=CARTESIAN_POINT('',(-7.75737811995374E-16,1.58623135603476E-16,2.8));
#1497=CARTESIAN_POINT('',(-0.469467783772221,0.100000000000001,2.8));
#1498=CARTESIAN_POINT('',(-4.262199888379E-15,8.71536104607847E-16,6.79999999999993));
#1499=CARTESIAN_POINT('',(-2.59741424690585E-15,5.31120161908266E-16,4.89));
#1500=CARTESIAN_POINT('',(0.479999999999997,5.5776551449927E-16,4.89));
#1501=CARTESIAN_POINT('',(-2.59741424690585E-15,5.31120161908266E-16,4.89));
#1502=CARTESIAN_POINT('',(-2.59741424690585E-15,5.31120161908266E-16,4.89));
#1503=CARTESIAN_POINT('',(0.949999999999997,5.83855755577961E-16,4.89));
#1504=CARTESIAN_POINT('',(-2.59741424690585E-15,5.31120161908266E-16,4.89));
#1505=CARTESIAN_POINT('',(-1.34815096107106E-30,1.92592994438724E-31,1.91));
#1506=CARTESIAN_POINT('',(0.95,5.27355936696951E-17,1.91));
#1507=CARTESIAN_POINT('',(-1.34815096107106E-30,1.92592994438724E-31,1.91));
#1508=CARTESIAN_POINT('',(-9.73707011812627E-17,4.28052013319385E-16,2.8));
#1509=CARTESIAN_POINT('',(-2.29170494744284E-15,1.65416284463979E-15,6.80000000000001));
#1510=CARTESIAN_POINT('',(-0.41821047332653,-0.0999999999999993,2.8));
#1511=CARTESIAN_POINT('',(-0.426934933567167,-0.0512499999999988,4.75));
#1512=CARTESIAN_POINT('',(-1.16710864623378E-15,1.02578104358808E-15,4.75));
#1513=CARTESIAN_POINT('',(0.426934933567164,-0.051249999999999,4.75));
#1514=CARTESIAN_POINT('',(-2.29170494744284E-15,1.65416284463979E-15,6.80000000000001));
#1515=CARTESIAN_POINT('',(0.41821047332653,-0.0999999999999997,2.8));
#1516=CARTESIAN_POINT('',(-9.73707011812627E-17,4.28052013319385E-16,2.8));
#1517=CARTESIAN_POINT('',(-9.73707011812627E-17,4.28052013319385E-16,2.8));
#1518=CARTESIAN_POINT('',(-2.29170494744282E-15,1.65416284463978E-15,6.79999999999997));
#1519=CARTESIAN_POINT('',(0.41821047332653,0.1,2.8));
#1520=CARTESIAN_POINT('',(0.426934933567164,0.0512500000000006,4.75));
#1521=CARTESIAN_POINT('',(-1.16710864623378E-15,1.02578104358808E-15,4.75));
#1522=CARTESIAN_POINT('',(-0.426934933567167,0.0512500000000009,4.75));
#1523=CARTESIAN_POINT('',(-2.29170494744282E-15,1.65416284463978E-15,6.79999999999997));
#1524=CARTESIAN_POINT('',(-0.41821047332653,0.100000000000001,2.8));
#1525=CARTESIAN_POINT('',(-9.73707011812627E-17,4.28052013319385E-16,2.8));
#1526=CARTESIAN_POINT('',(-9.73707011812627E-17,4.28052013319385E-16,2.8));
#1527=CARTESIAN_POINT('',(0.5,0.1,2.8));
#1528=CARTESIAN_POINT('',(0.5,-0.0999999999999997,2.8));
#1529=CARTESIAN_POINT('',(0.5,-0.0999999999999997,2.8));
#1530=CARTESIAN_POINT('',(0.5,0.1,2.8));
#1531=CARTESIAN_POINT('',(0.5,0.1,2.8));
#1532=CARTESIAN_POINT('',(0.477120267857067,0.0525000000000005,4.7));
#1533=CARTESIAN_POINT('',(0.460395327856481,0.0520832454444203,4.71667018222321));
#1534=CARTESIAN_POINT('',(0.443667293322238,0.0516665684904418,4.73333726038235));
#1535=CARTESIAN_POINT('',(0.426934933567163,0.0512500000000006,4.75));
#1536=CARTESIAN_POINT('',(0.499999999999999,-0.0499999999999991,4.8));
#1537=CARTESIAN_POINT('',(0.426934933567164,-0.051249999999999,4.75));
#1538=CARTESIAN_POINT('',(0.443667293322241,-0.0516665684904404,4.73333726038235));
#1539=CARTESIAN_POINT('',(0.460395327856479,-0.0520832454444188,4.71667018222321));
#1540=CARTESIAN_POINT('',(0.477120267857067,-0.0524999999999992,4.7));
#1541=CARTESIAN_POINT('',(0.5,0.1,2.8));
#1542=CARTESIAN_POINT('',(-0.426934933567167,0.0512500000000009,4.75));
#1543=CARTESIAN_POINT('',(-0.443667293322243,0.0516665684904422,4.73333726038235));
#1544=CARTESIAN_POINT('',(-0.460395327856483,0.0520832454444207,4.71667018222321));
#1545=CARTESIAN_POINT('',(-0.477120267857069,0.0525000000000009,4.7));
#1546=CARTESIAN_POINT('',(0.499999999999999,-0.0499999999999991,4.8));
#1547=CARTESIAN_POINT('',(-0.477120267857069,-0.0524999999999988,4.7));
#1548=CARTESIAN_POINT('',(-0.460395327856482,-0.0520832454444185,4.71667018222321));
#1549=CARTESIAN_POINT('',(-0.44366729332232,-0.051666568490442,4.73333726038227));
#1550=CARTESIAN_POINT('',(-0.426934933567243,-0.0512500000000007,4.74999999999992));
#1551=CARTESIAN_POINT('',(-1.13967946815551E-15,1.01045465819658E-15,4.7));
#1552=CARTESIAN_POINT('',(-1.13967946815551E-15,1.01045465819658E-15,4.7));
#1553=MECHANICAL_DESIGN_GEOMETRIC_PRESENTATION_REPRESENTATION('',(#662,
#663,#664,#665,#666,#667,#668,#669,#670,#671,#672,#673,#674,#675,#676,#677,
#678,#679,#680,#681,#682,#683,#684,#685,#686,#687,#688,#689,#690,#691,#692,
#693,#694,#695,#696,#697,#698,#699,#700,#701,#702,#703,#704,#705,#706),
#1554);
#1554=(
GEOMETRIC_REPRESENTATION_CONTEXT(3)
GLOBAL_UNCERTAINTY_ASSIGNED_CONTEXT((#1555))
GLOBAL_UNIT_ASSIGNED_CONTEXT((#1558,#1557,#1556))
REPRESENTATION_CONTEXT('60612202111308','TOP_LEVEL_ASSEMBLY_PART')
);
#1555=UNCERTAINTY_MEASURE_WITH_UNIT(LENGTH_MEASURE(0.005),#1558,
'DISTANCE_ACCURACY_VALUE','Maximum Tolerance applied to model');
#1556=(
NAMED_UNIT(*)
SI_UNIT($,.STERADIAN.)
SOLID_ANGLE_UNIT()
);
#1557=(
NAMED_UNIT(*)
PLANE_ANGLE_UNIT()
SI_UNIT($,.RADIAN.)
);
#1558=(
LENGTH_UNIT()
NAMED_UNIT(*)
SI_UNIT(.MILLI.,.METRE.)
);
#1559=PRODUCT_DEFINITION_SHAPE('','',#1560);
#1560=PRODUCT_DEFINITION('','',#1562,#1561);
#1561=PRODUCT_DEFINITION_CONTEXT('',#1568,'design');
#1562=PRODUCT_DEFINITION_FORMATION_WITH_SPECIFIED_SOURCE('','',#1564,
 .NOT_KNOWN.);
#1563=PRODUCT_RELATED_PRODUCT_CATEGORY('','',(#1564));
#1564=PRODUCT('60612202111308','60612202111308','60612202111308',(#1566));
#1565=PRODUCT_CATEGORY('','');
#1566=PRODUCT_CONTEXT('',#1568,'mechanical');
#1567=APPLICATION_PROTOCOL_DEFINITION('international standard',
'automotive_design',2010,#1568);
#1568=APPLICATION_CONTEXT(
'core data for automotive mechanical design processes');
ENDSEC;
END-ISO-10303-21;
